<svg width="573" height="163" viewBox="0 0 573 163" fill="none" xmlns="http://www.w3.org/2000/svg">
<g clip-path="url(#clip0_806_865)">
<path d="M8.21425 115.734C11.7123 115.426 14.3359 115.426 17.3343 115.896C20.7699 116.432 24.5803 116.497 25.2987 113.722C22.6751 112.311 16.7721 114.177 15.6165 110.964C18.3337 111.061 20.9573 111.662 23.7683 111.143C25.611 109.325 21.8631 109.342 19.9891 108.53C23.0499 105.886 27.2351 104.231 33.4505 104.117C32.4198 103.176 32.4198 102.333 33.9502 100.953C26.2357 102.576 19.177 103.663 13.1178 100.272C22.1754 98.8767 30.7332 97.5625 39.3223 96.2483C39.1974 95.9724 39.0724 95.6804 38.9475 95.4046C30.8582 96.1347 22.8625 98.5359 14.5545 96.3132C14.3671 91.7053 22.7376 93.8308 26.4231 92.1272C22.3628 90.9428 19.4269 88.9796 13.1803 89.3203C17.6466 86.1889 24.8302 87.3084 28.5157 84.9072C26.3606 84.0148 21.6444 84.0311 22.519 81.5487C27.2039 80.1858 30.9831 81.0457 34.3562 82.944C35.3557 81.1593 35.9491 79.5206 39.6346 79.0338C35.5431 76.5352 30.9831 77.0382 26.4231 77.7034C21.051 78.4984 15.3666 78.32 10.0258 79.3259C8.37042 79.6342 6.18411 79.5368 5.30959 78.1739C9.05754 75.8862 15.3041 76.0485 20.8948 74.28C13.1491 73.8744 6.65261 75.4806 -0.03125 74.5396C11.5562 70.9053 24.0181 68.7312 37.6045 68.0173C31.7014 66.914 33.7316 65.3564 36.2302 63.6853C33.4193 62.7442 29.4527 63.3283 26.3294 61.5112C31.1393 60.2781 34.8247 57.9255 40.228 58.1689C46.1311 58.4285 49.7853 57.1467 53.1585 54.7455C49.5979 54.3561 44.3196 56.3679 43.1952 53.3988C42.4456 51.3707 47.3179 51.4518 50.2538 50.6082C45.5689 49.9592 40.4779 50.5595 37.1047 48.0771C43.7886 46.1788 51.0971 45.757 58.187 45.7083C71.9607 45.6272 85.6408 44.6861 99.2896 44.1345C106.192 43.8587 113.501 43.0961 120.559 42.4147C124.401 42.0415 127.524 42.8365 130.991 42.6581C146.639 41.8793 162.349 42.074 178.059 42.0577C191.271 42.0415 204.482 42.2524 217.663 42.0091C237.714 41.6521 257.672 42.5932 277.661 42.7716C286.063 42.8365 294.589 42.6256 302.804 42.9177C313.954 43.3233 325.26 43.4368 336.379 44.2805C338.409 44.4265 340.533 44.4265 342.594 44.4265C363.614 44.4428 384.447 46.195 405.404 46.552C419.396 46.7954 433.232 48.0933 447.319 48.1096C457.719 48.1096 468.12 49.6834 478.52 49.6509C494.793 49.6022 510.878 50.6082 527.056 50.9327C528.68 50.9651 529.774 51.322 531.648 52.1171C516.781 52.1171 502.663 52.1171 488.577 52.1171C512.221 53.415 535.958 54.8753 559.039 58.2175C557.227 58.9477 546.92 59.0126 541.954 58.3636C535.989 57.5686 530.023 56.8547 523.558 56.8547C528.118 60.7973 536.645 59.8725 542.923 61.6896C538.831 62.4522 535.052 61.3002 530.742 61.1542C530.305 62.2899 529.305 63.377 526.525 64.026C529.243 64.821 531.866 64.8535 533.459 65.8594C530.898 68.4229 524.62 66.7842 521.309 68.6663C529.492 70.7917 544.234 71.9599 547.576 70.7755C548.763 73.5174 553.604 72.9496 557.04 73.4039C562.974 74.1827 569.127 74.5396 572.938 77.7845C568.908 78.7905 564.13 77.3789 560.85 78.9852C561.413 80.9321 566.285 80.0235 566.972 81.8894C565.004 82.9764 561.662 81.6298 559.539 83.09C560.819 83.7715 563.818 84.4042 562.1 85.6211C560.163 87.0002 557.102 86.8055 554.073 86.5134C543.516 85.475 532.897 84.5178 522.309 83.5443C521.247 83.447 520.123 83.5281 519.186 83.5281C528.118 87.4058 539.425 87.568 550.013 88.8011C554.635 89.3365 557.946 90.6994 561.756 92.2245C558.758 93.8308 555.666 93.701 552.293 93.3278C545.015 92.549 537.707 91.8514 530.367 91.251C528.462 91.0888 526.213 90.8779 523.402 92.1759C535.677 93.8145 547.982 93.701 558.758 96.443C557.227 99.5419 554.979 99.9962 548.263 99.3959C540.549 98.6982 532.866 97.822 525.026 97.7247C523.839 97.7085 522.403 97.4813 521.403 98.471C533.022 99.8826 545.702 99.2498 555.822 103.793C553.511 104.847 552.043 105.415 548.857 104.945C541.736 103.906 534.271 103.647 527.088 102.527C522.059 101.748 517.124 103.468 510.378 102.835C515.625 105.529 521.185 105.464 526.088 105.918C530.461 106.308 534.865 106.811 539.268 107.038C544.516 107.314 547.42 108.433 548.17 111.207C546.577 111.272 544.765 111.353 542.517 111.451C545.734 112.489 548.982 113.219 551.199 114.744C548.17 117.097 544.078 115.442 539.019 115.426C544.328 116.935 548.295 118.054 553.136 119.433C548.545 121.656 543.485 121.088 539.518 120.634C525.276 119.028 510.784 118.476 496.417 117.357C482.237 116.253 467.995 115.199 453.721 114.436C444.226 113.933 434.669 113.56 425.143 113.187C408.496 112.554 391.849 111.775 375.17 111.175C348.903 110.234 322.668 110.185 296.401 110.153C282.065 110.137 267.729 109.893 253.424 110.218C234.591 110.623 215.726 110.98 196.924 111.483C187.773 111.727 178.621 111.629 169.533 111.97C152.792 112.603 136.082 113.511 119.341 114.241C112.407 114.55 105.442 114.777 98.5088 114.874C76.0835 115.215 53.8144 116.27 31.8888 118.898C25.7672 119.628 19.9891 118.427 14.4608 117.405C12.8055 117.081 10.1507 117.113 8.21425 115.734ZM28.1721 111.207C30.2023 113.576 33.4817 113.203 36.4176 113.008C44.1634 112.505 51.8779 111.402 59.6237 111.435C73.2725 111.483 86.5465 109.861 100.258 109.877C110.877 109.909 121.809 108.936 132.584 108.482C151.511 107.687 170.47 106.924 189.522 107.184C192.02 107.216 192.02 107.151 193.957 106.243C171.313 104.945 148.45 107.378 125.494 106.6C124.744 106.567 123.995 106.665 123.245 106.729C118.435 107.07 113.657 107.735 108.878 107.719C89.0452 107.703 69.2435 107.865 49.5667 109.017C42.4768 109.423 35.5431 110.445 28.1721 111.207ZM472.586 110.672C470.868 110.12 470.15 109.731 469.307 109.634C452.066 107.735 434.419 107.638 417.023 106.178C400.719 104.799 383.978 104.831 367.456 104.215C361.959 104.004 356.431 103.841 350.996 103.403C346.561 103.063 332.85 102.884 328.009 103.598C375.982 104.782 423.613 107.703 472.586 110.672ZM33.7004 91.3808C39.9782 92.2083 35.3557 88.4117 39.9157 88.5902C36.2615 86.8704 33.0445 87.9574 29.5776 88.4928C31.0768 89.5312 32.4823 90.5209 33.7004 91.3808Z" fill="#1D252D"/>
</g>
<defs>
<clipPath id="clip0_806_865">
<rect width="573" height="79.0792" fill="white" transform="translate(0 41.9604)"/>
</clipPath>
</defs>
</svg>
