<svg width="318" height="66" viewBox="0 0 318 66" fill="none" xmlns="http://www.w3.org/2000/svg">
<path d="M4.54618 61.1009C6.48211 60.8456 7.93406 60.8456 9.59343 61.2353C11.4948 61.6788 13.6036 61.7325 14.0011 59.4347C12.5492 58.2656 9.2823 59.8109 8.64275 57.1503C10.1466 57.2309 11.5985 57.7281 13.1542 57.2981C14.174 55.7931 12.0998 55.8065 11.0627 55.1346C12.7566 52.9443 15.0728 51.5737 18.5126 51.4796C17.9421 50.7002 17.9421 50.0014 18.7891 48.8592C14.5197 50.203 10.6133 51.1033 7.25994 48.2949C12.2726 47.1392 17.0087 46.0508 21.7622 44.9623C21.693 44.7339 21.6239 44.492 21.5547 44.2636C17.0779 44.8683 12.6529 46.857 8.05506 45.0161C7.95135 41.1998 12.5838 42.9601 14.6234 41.5492C12.3763 40.5682 10.7515 38.9423 7.29451 39.2245C9.76628 36.631 13.7419 37.5582 15.7815 35.5694C14.5888 34.8304 11.9788 34.8438 12.4628 32.7878C15.0555 31.6591 17.147 32.3713 19.0138 33.9435C19.5669 32.4653 19.8954 31.1081 21.935 30.705C19.6707 28.6356 17.147 29.0522 14.6234 29.6031C11.6504 30.2616 8.50447 30.1137 5.54872 30.9469C4.63261 31.2022 3.42265 31.1216 2.93866 29.9928C5.01288 28.0981 8.4699 28.2325 11.5639 26.7678C7.27723 26.4318 3.68192 27.7622 -0.0170898 26.9828C6.39569 23.9727 13.2924 22.1721 20.8115 21.5808C17.5446 20.6671 18.6681 19.3771 20.0509 17.993C18.4953 17.2136 16.3001 17.6974 14.5715 16.1924C17.2335 15.1711 19.2731 13.2226 22.2634 13.4242C25.5303 13.6392 27.5527 12.5776 29.4195 10.5889C27.449 10.2664 24.5278 11.9326 23.9055 9.47353C23.4907 7.79383 26.1871 7.86102 27.8119 7.16226C25.2192 6.62475 22.4017 7.12195 20.5349 5.06599C24.2339 3.49378 28.2786 3.14441 32.2024 3.10409C39.8251 3.03691 47.396 2.25752 54.9496 1.80064C58.7696 1.5722 62.8143 0.940634 66.7207 0.376253C68.8468 0.0671874 70.5753 0.725632 72.4939 0.577818C81.1538 -0.0671889 89.8482 0.0940627 98.5426 0.080625C105.854 0.0671874 113.166 0.241877 120.46 0.0403121C131.557 -0.255316 142.602 0.524067 153.665 0.671881C158.315 0.725632 163.033 0.550942 167.579 0.79282C173.75 1.12876 180.007 1.22282 186.161 1.92158C187.284 2.04252 188.46 2.04252 189.601 2.04252C201.233 2.05596 212.763 3.50722 224.361 3.80285C232.105 4.00442 239.762 5.07943 247.558 5.09286C253.314 5.09286 259.069 6.39631 264.825 6.36944C273.831 6.32913 282.733 7.16226 291.686 7.43101C292.585 7.45789 293.19 7.75352 294.227 8.41196C286 8.41196 278.187 8.41196 270.391 8.41196C283.476 9.48697 296.613 10.6964 309.386 13.4645C308.384 14.0692 302.68 14.123 299.931 13.5854C296.63 12.927 293.329 12.3357 289.751 12.3357C292.274 15.6011 296.993 14.8351 300.467 16.3402C298.203 16.9717 296.111 16.0177 293.726 15.8967C293.484 16.8374 292.931 17.7377 291.393 18.2752C292.896 18.9336 294.348 18.9605 295.23 19.7936C293.813 21.9168 290.338 20.5596 288.506 22.1183C293.035 23.8787 301.193 24.8462 303.043 23.8652C303.7 26.1362 306.379 25.6659 308.28 26.0421C311.564 26.6871 314.97 26.9828 317.078 29.6703C314.849 30.5034 312.204 29.3344 310.389 30.6647C310.7 32.2772 313.397 31.5247 313.777 33.07C312.688 33.9703 310.838 32.855 309.663 34.0644C310.372 34.6288 312.031 35.1529 311.08 36.1607C310.009 37.3029 308.315 37.1416 306.638 36.8997C300.796 36.0397 294.919 35.2469 289.059 34.4407C288.471 34.36 287.849 34.4272 287.331 34.4272C292.274 37.6388 298.531 37.7732 304.391 38.7945C306.949 39.2379 308.781 40.3667 310.89 41.6298C309.231 42.9601 307.52 42.8526 305.653 42.5436C301.625 41.8986 297.581 41.3207 293.519 40.8235C292.464 40.6892 291.22 40.5145 289.664 41.5895C296.457 42.9467 303.267 42.8526 309.231 45.1236C308.384 47.6902 307.139 48.0664 303.423 47.5692C299.154 46.9914 294.901 46.2658 290.563 46.1852C289.906 46.1717 289.111 45.9836 288.558 46.8033C294.988 47.9724 302.006 47.4483 307.606 51.2108C306.327 52.0843 305.515 52.5546 303.751 52.1649C299.81 51.3049 295.679 51.0899 291.704 50.1627C288.921 49.5177 286.19 50.9421 282.456 50.418C285.36 52.6487 288.437 52.5949 291.151 52.9712C293.571 53.2937 296.008 53.7102 298.445 53.8984C301.349 54.1268 302.956 55.054 303.371 57.3518C302.49 57.4056 301.487 57.4728 300.243 57.5534C302.023 58.4134 303.821 59.0181 305.048 60.2812C303.371 62.2297 301.107 60.8591 298.307 60.8456C301.245 62.0953 303.44 63.0225 306.12 64.1647C303.579 66.0057 300.778 65.5354 298.583 65.1591C290.701 63.8288 282.681 63.3719 274.73 62.4447C266.882 61.5309 259 60.6575 251.101 60.0259C245.846 59.6094 240.557 59.3003 235.285 58.9912C226.072 58.4672 216.859 57.8222 207.629 57.325C193.092 56.5456 178.573 56.5053 164.036 56.4784C156.102 56.465 148.168 56.2634 140.252 56.5321C129.829 56.8681 119.388 57.1637 108.983 57.5803C103.918 57.7818 98.8537 57.7012 93.8238 57.9834C84.559 58.5075 75.3114 59.26 66.0466 59.8647C62.2093 60.12 58.3547 60.3081 54.5174 60.3887C42.1067 60.6709 29.7824 61.5444 17.6483 63.7213C14.2604 64.326 11.0627 63.3316 8.0032 62.485C7.08709 62.2163 5.61786 62.2431 4.54618 61.1009ZM15.5914 57.3518C16.7149 59.3137 18.5298 59.0047 20.1546 58.8434C24.4413 58.4268 28.7108 57.5131 32.9975 57.54C40.5511 57.5803 47.8972 56.2365 55.4854 56.25C61.3623 56.2768 67.4121 55.4706 73.3755 55.0943C83.8503 54.4359 94.3423 53.8043 104.886 54.0193C106.269 54.0462 106.269 53.9924 107.341 53.2399C94.809 52.1649 82.1563 54.1806 69.4518 53.5355C69.0369 53.5087 68.6221 53.5893 68.2072 53.643C65.5453 53.9252 62.9007 54.4762 60.2561 54.4627C49.28 54.4493 38.3213 54.5837 27.4317 55.5378C23.5079 55.8737 19.6707 56.7203 15.5914 57.3518ZM261.541 56.9084C260.591 56.4515 260.193 56.129 259.726 56.0484C250.185 54.4762 240.419 54.3956 230.791 53.1862C221.768 52.044 212.503 52.0708 203.36 51.5602C200.317 51.3855 197.258 51.2511 194.25 50.8883C191.796 50.6061 184.208 50.4583 181.528 51.0496C208.078 52.0305 234.438 54.4493 261.541 56.9084ZM18.6508 40.931C22.1251 41.6164 19.5669 38.472 22.0906 38.6198C20.0682 37.1954 18.2878 38.0957 16.3692 38.5391C17.1989 39.3992 17.9767 40.2188 18.6508 40.931Z" fill="white"/>
</svg>
