<svg width="48" height="48" viewBox="0 0 48 48" fill="none" xmlns="http://www.w3.org/2000/svg">
<path d="M19.043 11.9594C19.043 14.6926 21.267 16.9166 24.0002 16.9166C26.7334 16.9166 28.9574 14.6926 28.9574 11.9594C28.9574 9.22614 26.7334 7.00214 24.0002 7.00214C21.267 7.00214 19.043 9.22614 19.043 11.9594ZM27.8908 11.9594C27.8908 14.1044 26.1453 15.85 24.0001 15.85C21.855 15.85 20.1094 14.1049 20.1094 11.9594C20.1094 9.81395 21.8546 8.06871 24.0001 8.06871C26.1456 8.06871 27.8908 9.81385 27.8908 11.9594Z" fill="#F9B703"/>
<path d="M40.8244 20.1527C43.5577 20.1527 45.7817 17.9287 45.7817 15.1955C45.7817 12.4622 43.5577 10.2382 40.8244 10.2382C38.0912 10.2382 35.8672 12.4622 35.8672 15.1955C35.8668 17.9287 38.0912 20.1527 40.8244 20.1527ZM40.8244 11.3045C42.9695 11.3045 44.7151 13.0496 44.7151 15.1952C44.7151 17.3406 42.9699 19.0858 40.8244 19.0858C38.679 19.0858 36.9338 17.3407 36.9338 15.1952C36.9338 13.0497 38.6793 11.3045 40.8244 11.3045Z" fill="#F9B703"/>
<path d="M2.21777 15.1956C2.21777 17.9288 4.44177 20.1528 7.17501 20.1528C9.90825 20.1528 12.1322 17.9288 12.1322 15.1956C12.1322 12.4623 9.90825 10.2383 7.17501 10.2383C4.44177 10.2383 2.21777 12.4623 2.21777 15.1956ZM7.17501 11.3049C9.32006 11.3049 11.0657 13.0501 11.0657 15.1956C11.0657 17.341 9.32053 19.0862 7.17501 19.0862C5.02958 19.0862 3.28434 17.3411 3.28434 15.1956C3.28434 13.0502 5.02987 11.3049 7.17501 11.3049Z" fill="#F9B703"/>
<path d="M18.8389 6.92222C19.0004 7.1685 19.3308 7.23807 19.577 7.07624C19.8233 6.91479 19.8921 6.58405 19.731 6.33741C18.8114 4.93302 17.2634 4.09521 15.5897 4.09521C12.8531 4.09521 10.627 6.32141 10.627 9.05731C10.627 9.35233 10.8658 9.5908 11.1604 9.5908C11.4547 9.5908 11.6939 9.35233 11.6939 9.05731C11.6939 6.9096 13.4417 5.16188 15.5897 5.16188C16.9026 5.163 18.1173 5.82037 18.839 6.92226L18.8389 6.92222Z" fill="#F9B703"/>
<path d="M36.306 9.05743C36.306 9.35245 36.5448 9.59092 36.8395 9.59092C37.1337 9.59092 37.373 9.35245 37.373 9.05743C37.373 6.32153 35.1468 4.09534 32.4102 4.09534C30.7365 4.09534 29.1885 4.93314 28.2689 6.33753C28.1074 6.5838 28.1766 6.91454 28.4229 7.07637C28.6692 7.23745 28.9999 7.16825 29.161 6.92235C29.8831 5.82044 31.0974 5.16235 32.4098 5.16235C34.5583 5.16272 36.306 6.90977 36.306 9.05739L36.306 9.05743Z" fill="#F9B703"/>
<path d="M11.1771 21.6718H10.6102C10.4982 21.6665 10.3936 21.6985 10.2991 21.7614C10.2634 21.7856 10.2314 21.8127 10.2032 21.8429L7.17526 24.8708L4.13135 21.828C4.03091 21.7276 3.89549 21.6718 3.75412 21.6718H3.17191C1.42229 21.6718 0 23.0947 0 24.8429V32.8648C0 34.3347 0.986572 35.5799 2.36276 35.937V40.7733C2.36276 42.498 3.77086 43.9013 5.50191 43.9013H8.84638C10.5774 43.9013 11.9855 42.4981 11.9855 40.7733V35.937C13.3616 35.5806 14.3483 34.3355 14.3483 32.8648V24.8429C14.3483 23.0948 12.9253 21.6718 11.1771 21.6718L11.1771 21.6718ZM13.2817 32.8651C13.2817 33.9514 12.4722 34.8532 11.3985 34.9615C11.1258 34.9894 10.919 35.2182 10.919 35.492V40.7732C10.919 41.9098 9.98932 42.8346 8.84643 42.8346H5.50195C4.3591 42.8346 3.42938 41.9098 3.42938 40.7732V35.4924C3.42938 35.2189 3.22253 34.9894 2.94984 34.9619C1.87622 34.8529 1.0667 33.9511 1.0667 32.8651V24.8432C1.0667 23.6824 2.01127 22.7386 3.17232 22.7386L3.53355 22.7382L6.79803 26.0023C7.00673 26.211 7.34379 26.211 7.55213 26.0023L10.8162 22.7389H11.1775C12.3382 22.7389 13.282 23.6835 13.282 24.8435L13.2817 32.8651Z" fill="#F9B703"/>
<path d="M28.0033 18.4337H27.4549C27.3072 18.4247 27.1562 18.4764 27.0442 18.5888L24.0007 21.6331L20.9564 18.5888C20.8455 18.4779 20.6971 18.4277 20.5516 18.4337H19.9973C18.2485 18.4337 16.8262 19.8566 16.8262 21.6048V29.6267C16.8262 31.0977 17.8135 32.3429 19.1892 32.6993V40.7722C19.1892 42.4969 20.5973 43.9002 22.328 43.9002H25.6725C27.4031 43.9002 28.8112 42.497 28.8112 40.7722V32.6993C30.1873 32.3429 31.1743 31.0978 31.1743 29.6267V21.6055C31.175 19.8566 29.752 18.4336 28.0031 18.4336L28.0033 18.4337ZM30.1085 29.628C30.1085 30.715 29.299 31.6161 28.2254 31.7243C27.9527 31.7522 27.7455 31.981 27.7455 32.2548V40.773C27.7455 41.9096 26.8158 42.8345 25.6733 42.8345H22.3288C21.1859 42.8345 20.2566 41.9096 20.2566 40.773V32.2545C20.2566 31.9803 20.049 31.7515 19.7767 31.724C18.7031 31.6157 17.8935 30.7142 17.8935 29.6276V21.606C17.8935 20.4452 18.8381 19.5014 19.9981 19.5014H20.3601L23.6242 22.7655C23.8243 22.9656 24.1785 22.9656 24.3783 22.7655L27.6424 19.5014H28.0044C29.1651 19.5014 30.1089 20.446 30.1089 21.606V29.6279L30.1085 29.628Z" fill="#F9B703"/>
<path d="M44.8296 21.6718L44.2473 21.6707H44.2462C44.1048 21.6707 43.9691 21.7268 43.869 21.8269L40.8247 24.8708L37.7864 21.8325C37.7604 21.8057 37.7314 21.7819 37.6994 21.7603C37.5985 21.693 37.4843 21.6647 37.3698 21.6718H36.8225C35.0737 21.6718 33.6514 23.0948 33.6514 24.8429V32.8649C33.6514 34.3351 34.6379 35.5807 36.0141 35.937V40.7733C36.0141 42.498 37.4222 43.9013 39.1533 43.9013H42.4977C44.2288 43.9013 45.6369 42.4981 45.6369 40.7733V35.937C47.013 35.5803 47.9997 34.3348 47.9997 32.8649V24.8429C47.9997 23.0949 46.5774 21.6718 44.8297 21.6718L44.8296 21.6718ZM46.933 32.8651C46.933 33.951 46.1235 34.8528 45.0498 34.9615C44.7771 34.9894 44.5703 35.2186 44.5703 35.492V40.7732C44.5703 41.9098 43.6406 42.8347 42.4977 42.8347H39.1533C38.0104 42.8347 37.0807 41.9098 37.0807 40.7732V35.4924C37.0807 35.2182 36.8731 34.9894 36.6011 34.9619C35.5275 34.8536 34.718 33.9519 34.718 32.8655V24.8432C34.718 23.6824 35.6626 22.7386 36.8226 22.7386H37.1838L40.4472 26.0021C40.6559 26.2108 40.993 26.2108 41.2013 26.0021L44.4654 22.7386H44.8281C45.9889 22.7386 46.9327 23.6832 46.9327 24.8432L46.9323 32.8651H46.933Z" fill="#F9B703"/>
</svg>
