<svg width="48" height="48" viewBox="0 0 48 48" fill="none" xmlns="http://www.w3.org/2000/svg">
<path d="M47.9569 10.1751C47.9661 10.1506 47.9653 10.1245 47.9711 10.1C47.9876 10.0364 47.9998 9.97349 47.996 9.90871C47.996 9.89951 48.001 9.89107 47.9998 9.88072L47.6123 5.62618C47.5981 5.47245 47.5298 5.3283 47.4217 5.21944L42.7804 0.578124C42.6712 0.468865 42.527 0.401011 42.3725 0.387596L38.1195 0.000406034C38.1103 -0.000743966 38.1011 0.00462294 38.0919 0.00423961C38.0272 0.000405985 37.9643 0.0134402 37.9007 0.0287745C37.8757 0.0356749 37.8489 0.0341416 37.8244 0.0433425C37.7396 0.075544 37.6595 0.123464 37.5917 0.190934L4.64131 33.1433L4.31814 33.4664C4.19048 33.5952 3.80023 33.9843 0.112661 44.8938C0.10461 44.9183 0.0984763 44.9425 0.0923426 44.9678C0.0122205 45.3408 -0.230831 46.4786 0.645526 47.3541C1.52188 48.2309 2.65896 47.9875 3.03189 47.9073C3.05681 47.9012 3.08134 47.8947 3.10588 47.887C14.0151 44.1995 14.4037 43.8092 14.5332 43.6815L14.8564 43.3584L47.8097 10.408C47.878 10.3394 47.9255 10.2596 47.9573 10.1753L47.9569 10.1751ZM42.014 1.68224L46.3173 5.98468L46.6109 9.21023L43.3854 8.91581L39.0841 4.61455L38.7905 1.389L42.014 1.68224ZM41.8741 9.27422L9.56167 41.5867C8.99009 41.2033 8.40696 40.7326 7.83775 40.1625C7.83699 40.1617 7.83699 40.1617 7.83584 40.1605C7.26655 39.5913 6.79575 39.0094 6.41321 38.4385L38.7257 6.12605L41.8741 9.27422ZM5.57721 34.078L5.84096 33.8143L37.5292 2.12304L37.7895 4.97173C37.7934 5.02042 37.8122 5.06451 37.8267 5.11051L5.72135 37.2149C5.0773 35.8164 5.03513 34.6196 5.57682 34.0775L5.57721 34.078ZM4.72271 45.9392C4.209 45.6973 3.67036 45.3219 3.17397 44.8255C2.67828 44.3298 2.30259 43.7916 2.06028 43.2786C2.77831 41.1839 3.59567 38.8386 4.23849 37.0659C4.70273 38.3831 5.60822 39.8027 6.90091 41.0961L6.90283 41.098C8.19552 42.3907 9.61551 43.2981 10.9323 43.7616C9.15975 44.4037 6.81627 45.221 4.72276 45.9391L4.72271 45.9392ZM14.0878 42.2559L13.921 42.4226C13.3789 42.9647 12.1836 42.9229 10.7848 42.2785L42.8901 10.1741C42.9354 10.1883 42.9795 10.2078 43.0289 10.2121L45.8769 10.4716L14.0878 42.2559ZM41.7631 6.23572C42.7725 7.2443 44.0103 7.64186 44.5263 7.12549C45.0435 6.60873 44.6448 5.37125 43.6373 4.36336C42.6302 3.35517 41.3912 2.95564 40.8752 3.47358C40.3573 3.99073 40.7564 5.22744 41.7631 6.23572H41.7631Z" fill="#F9B703"/>
</svg>
