<svg width="456" height="456" viewBox="0 0 456 456" fill="none" xmlns="http://www.w3.org/2000/svg">
<rect width="456" height="456" fill="white"/>
<circle cx="228" cy="225" r="120" stroke="#F9B703" stroke-width="10" stroke-linejoin="round" stroke-dasharray="2 10"/>
<path d="M219.738 190.932C219.738 195.488 223.445 199.194 228 199.194C232.556 199.194 236.262 195.488 236.262 190.932C236.262 186.377 232.556 182.67 228 182.67C223.445 182.67 219.738 186.377 219.738 190.932ZM234.485 190.932C234.485 194.507 231.575 197.417 228 197.417C224.425 197.417 221.516 194.508 221.516 190.932C221.516 187.357 224.424 184.448 228 184.448C231.576 184.448 234.485 187.356 234.485 190.932Z" fill="black" fill-opacity="0.87"/>
<path d="M256.041 204.588C260.597 204.588 264.303 200.881 264.303 196.326C264.303 191.77 260.597 188.064 256.041 188.064C251.486 188.064 247.779 191.77 247.779 196.326C247.779 200.881 251.486 204.588 256.041 204.588ZM256.041 189.841C259.616 189.841 262.526 192.749 262.526 196.325C262.526 199.901 259.617 202.81 256.041 202.81C252.466 202.81 249.557 199.901 249.557 196.325C249.557 192.75 252.466 189.841 256.041 189.841Z" fill="black" fill-opacity="0.87"/>
<path d="M191.697 196.326C191.697 200.881 195.404 204.588 199.959 204.588C204.515 204.588 208.221 200.881 208.221 196.326C208.221 191.771 204.515 188.064 199.959 188.064C195.404 188.064 191.697 191.771 191.697 196.326ZM199.959 189.842C203.534 189.842 206.444 192.75 206.444 196.326C206.444 199.902 203.535 202.81 199.959 202.81C196.384 202.81 193.475 199.902 193.475 196.326C193.475 192.75 196.384 189.842 199.959 189.842Z" fill="black" fill-opacity="0.87"/>
<path d="M219.399 182.537C219.668 182.948 220.218 183.064 220.629 182.794C221.039 182.525 221.154 181.973 220.885 181.562C219.353 179.222 216.773 177.825 213.983 177.825C209.422 177.825 205.712 181.536 205.712 186.096C205.712 186.587 206.11 186.985 206.601 186.985C207.092 186.985 207.49 186.587 207.49 186.096C207.49 182.516 210.403 179.603 213.983 179.603C216.171 179.605 218.196 180.701 219.399 182.537L219.399 182.537Z" fill="black" fill-opacity="0.87"/>
<path d="M248.509 186.096C248.509 186.588 248.907 186.985 249.398 186.985C249.889 186.985 250.288 186.588 250.288 186.096C250.288 181.536 246.577 177.826 242.016 177.826C239.227 177.826 236.647 179.222 235.114 181.563C234.845 181.973 234.96 182.524 235.371 182.794C235.781 183.063 236.332 182.947 236.601 182.537C237.804 180.701 239.828 179.604 242.016 179.604C245.597 179.605 248.509 182.516 248.509 186.096L248.509 186.096Z" fill="black" fill-opacity="0.87"/>
<path d="M206.629 207.12H205.684C205.497 207.111 205.323 207.164 205.165 207.269C205.106 207.309 205.052 207.355 205.005 207.405L199.959 212.451L194.886 207.38C194.718 207.213 194.492 207.12 194.257 207.12H193.287C190.37 207.12 188 209.491 188 212.405V225.775C188 228.225 189.644 230.3 191.938 230.895V238.956C191.938 241.83 194.285 244.169 197.17 244.169H202.744C205.629 244.169 207.976 241.83 207.976 238.956V230.895C210.269 230.301 211.914 228.226 211.914 225.775V212.405C211.914 209.491 209.542 207.12 206.629 207.12L206.629 207.12ZM210.136 225.775C210.136 227.586 208.787 229.089 206.998 229.269C206.543 229.316 206.198 229.697 206.198 230.153V238.955C206.198 240.85 204.649 242.391 202.744 242.391H197.17C195.265 242.391 193.716 240.85 193.716 238.955V230.154C193.716 229.698 193.371 229.316 192.916 229.27C191.127 229.088 189.778 227.585 189.778 225.775V212.405C189.778 210.471 191.352 208.898 193.287 208.898L193.889 208.897L199.33 214.337C199.678 214.685 200.24 214.685 200.587 214.337L206.027 208.898H206.629C208.564 208.898 210.137 210.473 210.137 212.406L210.136 225.775Z" fill="black" fill-opacity="0.87"/>
<path d="M234.671 201.723H233.758C233.511 201.708 233.26 201.794 233.073 201.981L228 207.055L222.927 201.981C222.742 201.797 222.494 201.713 222.252 201.723H221.328C218.413 201.723 216.043 204.094 216.043 207.008V220.378C216.043 222.829 217.689 224.905 219.981 225.499V238.954C219.981 241.828 222.328 244.167 225.213 244.167H230.787C233.671 244.167 236.018 241.828 236.018 238.954V225.499C238.312 224.905 239.956 222.83 239.956 220.378V207.009C239.958 204.094 237.586 201.723 234.671 201.723L234.671 201.723ZM238.18 220.38C238.18 222.192 236.831 223.693 235.042 223.874C234.587 223.92 234.242 224.302 234.242 224.758V238.955C234.242 240.849 232.692 242.391 230.788 242.391H225.214C223.309 242.391 221.76 240.849 221.76 238.955V224.757C221.76 224.301 221.414 223.919 220.96 223.873C219.171 223.693 217.822 222.19 217.822 220.379V207.01C217.822 205.075 219.396 203.502 221.33 203.502H221.933L227.373 208.942C227.707 209.276 228.297 209.276 228.63 208.942L234.07 203.502H234.673C236.608 203.502 238.181 205.077 238.181 207.01V220.38L238.18 220.38Z" fill="black" fill-opacity="0.87"/>
<path d="M262.716 207.12L261.746 207.118H261.744C261.508 207.118 261.282 207.211 261.115 207.378L256.042 212.451L250.978 207.388C250.934 207.343 250.886 207.303 250.833 207.267C250.665 207.155 250.474 207.108 250.283 207.12H249.371C246.456 207.12 244.086 209.491 244.086 212.405V225.775C244.086 228.225 245.73 230.301 248.024 230.895V238.956C248.024 241.83 250.371 244.169 253.256 244.169H258.83C261.715 244.169 264.062 241.83 264.062 238.956V230.895C266.355 230.3 268 228.225 268 225.775V212.405C268 209.491 265.629 207.12 262.716 207.12L262.716 207.12ZM266.222 225.775C266.222 227.585 264.873 229.088 263.083 229.269C262.629 229.316 262.284 229.698 262.284 230.153V238.955C262.284 240.85 260.735 242.391 258.83 242.391H253.256C251.351 242.391 249.801 240.85 249.801 238.955V230.154C249.801 229.697 249.455 229.316 249.002 229.27C247.213 229.089 245.864 227.586 245.864 225.776V212.405C245.864 210.471 247.438 208.898 249.371 208.898H249.973L255.412 214.337C255.76 214.685 256.322 214.685 256.669 214.337L262.109 208.898H262.714C264.649 208.898 266.222 210.472 266.222 212.405L266.221 225.775H266.222Z" fill="black" fill-opacity="0.87"/>
<path d="M181.714 269.114C181.714 271.914 183.968 274.14 186.768 274.14C188.014 274.14 189.218 273.706 190.17 272.782C190.268 272.684 190.296 272.502 190.184 272.404L189.54 271.774C189.456 271.704 189.33 271.69 189.204 271.788C188.532 272.306 187.818 272.712 186.796 272.712C184.794 272.712 183.268 271.046 183.268 269.086C183.268 267.126 184.78 265.446 186.782 265.446C187.65 265.446 188.546 265.81 189.204 266.384C189.33 266.51 189.456 266.51 189.554 266.384L190.17 265.754C190.282 265.642 190.282 265.474 190.156 265.362C189.204 264.536 188.182 264.06 186.768 264.06C183.968 264.06 181.714 266.314 181.714 269.114ZM193.45 270.346C193.45 272.474 195.046 274.14 197.244 274.14C199.456 274.14 201.066 272.474 201.066 270.346V264.466C201.066 264.326 200.94 264.2 200.8 264.2H199.862C199.708 264.2 199.596 264.326 199.596 264.466V270.276C199.596 271.662 198.686 272.74 197.244 272.74C195.816 272.74 194.92 271.648 194.92 270.248V264.466C194.92 264.326 194.808 264.2 194.654 264.2H193.716C193.576 264.2 193.45 264.326 193.45 264.466V270.346ZM204.506 273.034C204.73 273.244 205.808 274.14 207.516 274.14C209.336 274.14 210.638 272.95 210.638 271.494C210.638 269.786 209.252 269.016 207.628 268.358C206.466 267.882 205.85 267.392 205.85 266.594C205.85 266.076 206.256 265.334 207.432 265.334C208.244 265.334 209.224 265.978 209.322 266.034C209.518 266.16 209.7 266.076 209.812 265.894C209.924 265.726 210.05 265.53 210.162 265.362C210.302 265.152 210.19 264.956 210.078 264.886C209.938 264.788 208.888 264.06 207.488 264.06C205.262 264.06 204.422 265.558 204.422 266.65C204.422 268.274 205.542 269.016 206.97 269.618C208.356 270.192 209.084 270.724 209.084 271.564C209.084 272.278 208.468 272.866 207.502 272.866C206.424 272.866 205.346 271.97 205.262 271.9C205.108 271.774 204.912 271.83 204.786 272.012C204.66 272.194 204.548 272.404 204.422 272.586C204.282 272.824 204.38 272.922 204.506 273.034ZM215.316 273.734C215.316 273.874 215.442 274 215.582 274H216.506C216.646 274 216.772 273.874 216.772 273.734V265.516H219.054C219.208 265.516 219.32 265.39 219.32 265.25V264.466C219.32 264.326 219.208 264.2 219.054 264.2H213.034C212.88 264.2 212.768 264.326 212.768 264.466V265.25C212.768 265.39 212.88 265.516 213.034 265.516H215.316V273.734ZM221.384 269.114C221.384 271.914 223.61 274.14 226.41 274.14C229.21 274.14 231.45 271.914 231.45 269.114C231.45 266.314 229.21 264.06 226.41 264.06C223.61 264.06 221.384 266.314 221.384 269.114ZM222.784 269.114C222.784 267.126 224.422 265.46 226.41 265.46C228.412 265.46 230.05 267.126 230.05 269.114C230.05 271.116 228.412 272.74 226.41 272.74C224.422 272.74 222.784 271.116 222.784 269.114ZM234.174 273.678C234.146 273.874 234.244 274 234.44 274H235.35C235.462 274 235.588 273.902 235.602 273.804L236.61 267.546C236.624 267.546 236.652 267.546 236.666 267.546L239.2 273.986C239.228 274.07 239.326 274.14 239.438 274.14H239.69C239.816 274.14 239.9 274.07 239.928 273.986L242.448 267.546C242.448 267.546 242.476 267.546 242.49 267.546L243.526 273.804C243.554 273.902 243.666 274 243.792 274H244.702C244.898 274 244.996 273.874 244.954 273.678L243.232 264.27C243.204 264.158 243.092 264.06 242.98 264.06H242.756C242.658 264.06 242.546 264.13 242.518 264.214L239.606 271.368H239.55L236.624 264.214C236.596 264.13 236.47 264.06 236.386 264.06H236.162C236.05 264.06 235.938 264.158 235.91 264.27L234.174 273.678ZM248.414 273.734C248.414 273.874 248.526 274 248.68 274H254.28C254.434 274 254.546 273.874 254.546 273.734V272.964C254.546 272.824 254.434 272.698 254.28 272.698H249.856V269.688H253.594C253.734 269.688 253.86 269.576 253.86 269.422V268.638C253.86 268.498 253.734 268.372 253.594 268.372H249.856V265.516H254.28C254.434 265.516 254.546 265.39 254.546 265.25V264.466C254.546 264.326 254.434 264.2 254.28 264.2H248.68C248.526 264.2 248.414 264.326 248.414 264.466V273.734ZM258.058 273.734C258.058 273.874 258.17 274 258.324 274H259.234C259.374 274 259.5 273.874 259.5 273.734V270.164H261.614L263.476 273.874C263.504 273.93 263.588 274 263.7 274H264.792C265.03 274 265.128 273.776 265.03 273.594L263.112 270.038C264.33 269.548 265.184 268.484 265.184 267.196C265.184 265.53 263.812 264.2 262.132 264.2H258.324C258.17 264.2 258.058 264.326 258.058 264.466V273.734ZM259.528 268.96V265.558H262.02C262.93 265.558 263.728 266.314 263.728 267.224C263.728 268.19 262.93 268.96 262.02 268.96H259.528ZM268.223 273.034C268.447 273.244 269.525 274.14 271.233 274.14C273.053 274.14 274.355 272.95 274.355 271.494C274.355 269.786 272.969 269.016 271.345 268.358C270.183 267.882 269.567 267.392 269.567 266.594C269.567 266.076 269.973 265.334 271.149 265.334C271.961 265.334 272.941 265.978 273.039 266.034C273.235 266.16 273.417 266.076 273.529 265.894C273.641 265.726 273.767 265.53 273.879 265.362C274.019 265.152 273.907 264.956 273.795 264.886C273.655 264.788 272.605 264.06 271.205 264.06C268.979 264.06 268.139 265.558 268.139 266.65C268.139 268.274 269.259 269.016 270.687 269.618C272.073 270.192 272.801 270.724 272.801 271.564C272.801 272.278 272.185 272.866 271.219 272.866C270.141 272.866 269.063 271.97 268.979 271.9C268.825 271.774 268.629 271.83 268.503 272.012C268.377 272.194 268.265 272.404 268.139 272.586C267.999 272.824 268.097 272.922 268.223 273.034Z" fill="black" fill-opacity="0.87"/>
<rect x="300" y="276" width="48" height="56" fill="white"/>
<g clip-path="url(#clip0_190_3303)">
<path d="M349.384 286.263H349.379H349.379C349.088 286.255 348.807 286.367 348.601 286.573C347.996 287.187 348.282 288.194 349.589 290.05C350.555 291.423 351.976 293.096 353.591 294.762H353.591C354.922 296.152 356.343 297.453 357.846 298.654C359.582 300.006 360.36 300.245 360.813 300.245C360.855 300.245 360.897 300.243 360.938 300.239C361.186 300.22 361.419 300.114 361.595 299.94L361.6 299.935C362.204 299.321 361.918 298.314 360.612 296.458C359.646 295.085 358.224 293.412 356.61 291.746C355.724 290.832 351.211 286.27 349.384 286.263L349.384 286.263ZM354.717 293.671C352.4 291.282 350.986 289.409 350.322 288.317C351.385 289.012 353.193 290.472 355.485 292.838C357.8 295.227 359.214 297.098 359.879 298.191C358.817 297.495 357.008 296.035 354.717 293.672L354.717 293.671Z" fill="black"/>
<path d="M359.645 288.747C353.507 282.355 346.979 278.037 343.4 278H343.352C342.445 278 341.721 278.265 341.199 278.787C339.863 280.121 340.184 282.781 342.12 286.495L338.916 289.698C338.844 289.727 338.774 289.756 338.704 289.787L327.161 294.938C326.709 295.138 326.199 295.161 325.731 295.001C325.263 294.841 324.873 294.511 324.638 294.076C324.484 293.793 324.404 293.476 324.404 293.154C324.404 292.773 324.515 292.4 324.723 292.082C324.932 291.763 325.228 291.511 325.577 291.357L326.247 291.065C326.644 290.892 326.825 290.43 326.652 290.033C326.479 289.637 326.017 289.456 325.62 289.629L324.949 289.922C323.952 290.358 323.212 291.231 322.946 292.287C322.679 293.342 322.916 294.461 323.586 295.319C324.257 296.177 325.286 296.676 326.374 296.672C326.866 296.672 327.351 296.569 327.8 296.368L335.826 292.787L314.963 313.641C311.107 311.343 308.335 310.87 306.927 312.277C305.585 313.619 305.92 316.316 307.895 320.076C309.703 323.516 312.69 327.486 316.309 331.254C319.618 334.701 323.17 337.665 326.309 339.601C328.194 340.763 330.657 342 332.611 342C333.033 342.006 333.453 341.936 333.85 341.793C334.19 341.667 334.499 341.47 334.756 341.214C336.033 339.94 335.792 337.436 334.064 333.956L361.421 306.61C363.968 308.066 365.711 308.506 366.886 308.506V308.506C367.308 308.514 367.728 308.444 368.124 308.302C368.463 308.175 368.771 307.978 369.027 307.724C370.369 306.382 370.034 303.685 368.059 299.925C366.251 296.485 363.263 292.515 359.645 288.747L359.645 288.747ZM314.616 316.203L315.466 315.354C316.163 318.325 319.219 322.55 322.362 325.823C326.096 329.713 330.058 332.494 332.673 333.131L331.731 334.072L331.735 334.081L331.728 334.074C331.599 334.203 331.353 334.228 331.17 334.226C329.411 334.208 325.349 331.814 320.99 327.273C315.38 321.429 313.859 316.96 314.616 316.203L314.616 316.203ZM333.647 340.106C333.548 340.204 333.428 340.28 333.296 340.327C332.2 340.742 329.895 339.972 327.131 338.268C324.102 336.399 320.659 333.524 317.438 330.169C309.49 321.892 306.604 314.815 308.034 313.386C308.93 312.489 311.542 313.495 313.815 314.789L313.508 315.095C312.506 316.097 312.709 318.029 314.094 320.683C315.324 323.04 317.372 325.766 319.86 328.357C324.105 332.779 328.643 335.767 331.154 335.792H331.19C331.877 335.792 332.43 335.587 332.836 335.182L332.824 335.17L332.889 335.129C334.228 337.99 334.186 339.569 333.648 340.107L333.647 340.106ZM334.25 331.554C334.122 331.682 333.876 331.704 333.695 331.704C331.931 331.686 327.861 329.287 323.492 324.738C321.312 322.467 319.45 320.05 318.247 317.932C317.078 315.873 316.787 314.537 316.907 313.914L318.712 312.109C319.398 315.077 322.453 319.306 325.613 322.597C329.344 326.482 333.299 329.261 335.906 329.899L334.25 331.554ZM337.483 328.322C337.355 328.45 337.11 328.474 336.928 328.473C335.171 328.455 331.109 326.057 326.744 321.512C321.876 316.442 319.845 312.06 320.163 310.66L321.971 308.852C322.653 311.82 325.708 316.051 328.873 319.348C332.601 323.23 336.555 326.006 339.162 326.643L337.483 328.322ZM340.742 325.065C340.613 325.194 340.367 325.218 340.184 325.216C338.426 325.199 334.365 322.805 330.004 318.263C325.118 313.175 323.094 308.79 323.425 307.398L325.231 305.593C325.916 308.56 328.97 312.788 332.133 316.082C335.863 319.966 339.817 322.744 342.425 323.382L340.742 325.065ZM344.004 321.804C343.875 321.933 343.633 321.958 343.447 321.955C341.69 321.938 337.627 319.542 333.263 314.997C328.388 309.919 326.36 305.537 326.683 304.142L328.496 302.329C329.186 305.298 332.241 309.526 335.395 312.812C339.127 316.699 343.085 319.477 345.695 320.115L344.004 321.804ZM347.273 318.537L347.272 318.536C347.143 318.664 346.902 318.688 346.716 318.687C344.956 318.669 340.891 316.272 336.526 311.727C331.674 306.674 329.638 302.291 329.943 300.882L331.798 299.028C332.397 301.903 335.289 306.076 338.72 309.649C341.891 312.953 345.987 316.162 348.894 316.915L347.273 318.537ZM350.315 315.495C348.947 315.791 344.715 313.631 339.851 308.564C334.195 302.674 332.649 298.182 333.405 297.425L333.404 297.423L335.044 295.783C335.226 296.631 335.619 297.624 336.222 298.759C337.475 301.114 339.522 303.825 341.985 306.39C345.153 309.689 349.249 312.899 352.157 313.655L350.315 315.495ZM353.574 312.237C352.201 312.522 347.969 310.359 343.116 305.305C340.75 302.841 338.793 300.255 337.605 298.023C336.328 295.624 336.394 294.491 336.639 294.189L338.309 292.52C338.489 293.363 338.877 294.348 339.473 295.475C340.727 297.84 342.779 300.561 345.251 303.138C348.411 306.428 352.505 309.638 355.414 310.399L353.574 312.237ZM356.828 308.986C356.227 309.098 354.942 308.779 352.956 307.552C350.903 306.283 348.567 304.33 346.381 302.053C341.014 296.462 339.336 292.083 339.84 291.033L339.839 291.033C339.961 290.996 340.085 290.967 340.21 290.946C342.013 290.645 342.921 291.937 344.642 294.653C345.661 296.262 346.816 298.086 348.544 299.884C351.677 303.147 355.766 306.359 358.676 307.138L356.828 308.986ZM367.919 306.617H367.918C367.818 306.715 367.699 306.79 367.567 306.838C366.515 307.235 364.32 306.533 361.696 304.957C358.595 303.096 355.048 300.157 351.709 296.681C351.01 295.952 350.324 295.205 349.671 294.459V294.459C349.536 294.297 349.342 294.197 349.131 294.181C348.922 294.164 348.714 294.233 348.555 294.372C348.396 294.511 348.3 294.708 348.289 294.918C348.277 295.128 348.35 295.335 348.492 295.49C349.161 296.254 349.863 297.019 350.579 297.765C353.701 301.016 357.012 303.815 360.006 305.747C359.358 305.802 358.085 305.442 356.19 304.262C354.151 302.992 351.837 301.052 349.673 298.799C348.055 297.114 346.944 295.361 345.965 293.814C344.608 291.673 343.402 289.769 341.43 289.399L342.911 287.919L342.912 287.919C343.832 289.465 344.844 290.954 345.942 292.379C346.205 292.723 346.697 292.788 347.04 292.526C347.385 292.263 347.45 291.771 347.187 291.428C345.92 289.794 344.778 288.068 343.771 286.263C342.492 283.927 341.342 280.857 342.305 279.895C342.528 279.672 342.893 279.56 343.383 279.567C344.833 279.581 347.091 280.562 349.746 282.326C352.57 284.204 355.602 286.799 358.514 289.833C366.462 298.109 369.349 305.186 367.918 306.616L367.919 306.617Z" fill="black"/>
</g>
<path d="M297.347 364.034C297.571 364.244 298.649 365.14 300.357 365.14C302.177 365.14 303.479 363.95 303.479 362.494C303.479 360.786 302.093 360.016 300.469 359.358C299.307 358.882 298.691 358.392 298.691 357.594C298.691 357.076 299.097 356.334 300.273 356.334C301.085 356.334 302.065 356.978 302.163 357.034C302.359 357.16 302.541 357.076 302.653 356.894C302.765 356.726 302.891 356.53 303.003 356.362C303.143 356.152 303.031 355.956 302.919 355.886C302.779 355.788 301.729 355.06 300.329 355.06C298.103 355.06 297.263 356.558 297.263 357.65C297.263 359.274 298.383 360.016 299.811 360.618C301.197 361.192 301.925 361.724 301.925 362.564C301.925 363.278 301.309 363.866 300.343 363.866C299.265 363.866 298.187 362.97 298.103 362.9C297.949 362.774 297.753 362.83 297.627 363.012C297.501 363.194 297.389 363.404 297.263 363.586C297.123 363.824 297.221 363.922 297.347 364.034ZM306.098 360.114C306.098 362.914 308.324 365.14 311.124 365.14C313.924 365.14 316.164 362.914 316.164 360.114C316.164 357.314 313.924 355.06 311.124 355.06C308.324 355.06 306.098 357.314 306.098 360.114ZM307.498 360.114C307.498 358.126 309.136 356.46 311.124 356.46C313.126 356.46 314.764 358.126 314.764 360.114C314.764 362.116 313.126 363.74 311.124 363.74C309.136 363.74 307.498 362.116 307.498 360.114ZM319.434 361.346C319.434 363.474 321.03 365.14 323.228 365.14C325.44 365.14 327.05 363.474 327.05 361.346V355.466C327.05 355.326 326.924 355.2 326.784 355.2H325.846C325.692 355.2 325.58 355.326 325.58 355.466V361.276C325.58 362.662 324.67 363.74 323.228 363.74C321.8 363.74 320.904 362.648 320.904 361.248V355.466C320.904 355.326 320.792 355.2 320.638 355.2H319.7C319.56 355.2 319.434 355.326 319.434 355.466V361.346ZM331.036 364.734C331.036 364.874 331.148 365 331.302 365H332.212C332.352 365 332.478 364.874 332.478 364.734V361.164H334.592L336.454 364.874C336.482 364.93 336.566 365 336.678 365H337.77C338.008 365 338.106 364.776 338.008 364.594L336.09 361.038C337.308 360.548 338.162 359.484 338.162 358.196C338.162 356.53 336.79 355.2 335.11 355.2H331.302C331.148 355.2 331.036 355.326 331.036 355.466V364.734ZM332.506 359.96V356.558H334.998C335.908 356.558 336.706 357.314 336.706 358.224C336.706 359.19 335.908 359.96 334.998 359.96H332.506ZM341.032 360.114C341.032 362.914 343.286 365.14 346.086 365.14C347.332 365.14 348.536 364.706 349.488 363.782C349.586 363.684 349.614 363.502 349.502 363.404L348.858 362.774C348.774 362.704 348.648 362.69 348.522 362.788C347.85 363.306 347.136 363.712 346.114 363.712C344.112 363.712 342.586 362.046 342.586 360.086C342.586 358.126 344.098 356.446 346.1 356.446C346.968 356.446 347.864 356.81 348.522 357.384C348.648 357.51 348.774 357.51 348.872 357.384L349.488 356.754C349.6 356.642 349.6 356.474 349.474 356.362C348.522 355.536 347.5 355.06 346.086 355.06C343.286 355.06 341.032 357.314 341.032 360.114ZM352.895 364.734C352.895 364.874 353.021 365 353.161 365H354.085C354.225 365 354.351 364.874 354.351 364.734V355.466C354.351 355.326 354.225 355.2 354.085 355.2H353.161C353.021 355.2 352.895 355.326 352.895 355.466V364.734ZM358.464 364.734C358.464 364.874 358.59 365 358.73 365H359.612C359.766 365 359.878 364.874 359.878 364.734V357.916H359.892L365.968 365.14H366.332C366.472 365.14 366.598 365.028 366.598 364.888V355.466C366.598 355.326 366.472 355.2 366.332 355.2H365.436C365.282 355.2 365.17 355.326 365.17 355.466V362.088H365.156L359.08 355.06H358.73C358.59 355.06 358.464 355.172 358.464 355.312V364.734ZM370.006 360.114C370.006 362.914 372.26 365.14 375.046 365.14C377.076 365.14 378.518 364.216 378.518 364.216C378.574 364.174 378.63 364.062 378.63 363.992C378.63 362.872 378.616 361.724 378.616 360.604C378.616 360.464 378.504 360.338 378.364 360.338H375.816C375.662 360.338 375.55 360.45 375.55 360.604V361.416C375.55 361.556 375.662 361.668 375.816 361.668H377.188V363.236C377.048 363.292 376.25 363.712 375.088 363.712C373.1 363.712 371.574 362.032 371.574 360.086C371.574 358.126 373.1 356.446 375.088 356.446C375.942 356.446 376.81 356.824 377.468 357.398C377.608 357.524 377.72 357.538 377.832 357.412C378.042 357.188 378.252 356.978 378.462 356.754C378.574 356.642 378.56 356.474 378.448 356.362C377.496 355.55 376.39 355.06 375.046 355.06C372.26 355.06 370.006 357.314 370.006 360.114Z" fill="black" fill-opacity="0.87"/>
<rect x="94" y="126" width="63" height="57" fill="white"/>
<path d="M89.978 100.034C90.202 100.244 91.28 101.14 92.988 101.14C94.808 101.14 96.11 99.95 96.11 98.494C96.11 96.786 94.724 96.016 93.1 95.358C91.938 94.882 91.322 94.392 91.322 93.594C91.322 93.076 91.728 92.334 92.904 92.334C93.716 92.334 94.696 92.978 94.794 93.034C94.99 93.16 95.172 93.076 95.284 92.894C95.396 92.726 95.522 92.53 95.634 92.362C95.774 92.152 95.662 91.956 95.55 91.886C95.41 91.788 94.36 91.06 92.96 91.06C90.734 91.06 89.894 92.558 89.894 93.65C89.894 95.274 91.014 96.016 92.442 96.618C93.828 97.192 94.556 97.724 94.556 98.564C94.556 99.278 93.94 99.866 92.974 99.866C91.896 99.866 90.818 98.97 90.734 98.9C90.58 98.774 90.384 98.83 90.258 99.012C90.132 99.194 90.02 99.404 89.894 99.586C89.754 99.824 89.852 99.922 89.978 100.034ZM100.788 100.734C100.788 100.874 100.914 101 101.054 101H101.978C102.118 101 102.244 100.874 102.244 100.734V92.516H104.526C104.68 92.516 104.792 92.39 104.792 92.25V91.466C104.792 91.326 104.68 91.2 104.526 91.2H98.5055C98.3515 91.2 98.2395 91.326 98.2395 91.466V92.25C98.2395 92.39 98.3515 92.516 98.5055 92.516H100.788V100.734ZM106.856 96.114C106.856 98.914 109.082 101.14 111.882 101.14C114.682 101.14 116.922 98.914 116.922 96.114C116.922 93.314 114.682 91.06 111.882 91.06C109.082 91.06 106.856 93.314 106.856 96.114ZM108.256 96.114C108.256 94.126 109.894 92.46 111.882 92.46C113.884 92.46 115.522 94.126 115.522 96.114C115.522 98.116 113.884 99.74 111.882 99.74C109.894 99.74 108.256 98.116 108.256 96.114ZM120.318 100.734C120.318 100.874 120.43 101 120.584 101H121.494C121.634 101 121.76 100.874 121.76 100.734V97.164H123.874L125.736 100.874C125.764 100.93 125.848 101 125.96 101H127.052C127.29 101 127.388 100.776 127.29 100.594L125.372 97.038C126.59 96.548 127.444 95.484 127.444 94.196C127.444 92.53 126.072 91.2 124.392 91.2H120.584C120.43 91.2 120.318 91.326 120.318 91.466V100.734ZM121.788 95.96V92.558H124.28C125.19 92.558 125.988 93.314 125.988 94.224C125.988 95.19 125.19 95.96 124.28 95.96H121.788ZM131.028 100.734C131.028 100.874 131.14 101 131.294 101H136.894C137.048 101 137.16 100.874 137.16 100.734V99.964C137.16 99.824 137.048 99.698 136.894 99.698H132.47V96.688H136.208C136.348 96.688 136.474 96.576 136.474 96.422V95.638C136.474 95.498 136.348 95.372 136.208 95.372H132.47V92.516H136.894C137.048 92.516 137.16 92.39 137.16 92.25V91.466C137.16 91.326 137.048 91.2 136.894 91.2H131.294C131.14 91.2 131.028 91.326 131.028 91.466V100.734ZM140.126 100.034C140.35 100.244 141.428 101.14 143.136 101.14C144.956 101.14 146.258 99.95 146.258 98.494C146.258 96.786 144.872 96.016 143.248 95.358C142.086 94.882 141.47 94.392 141.47 93.594C141.47 93.076 141.876 92.334 143.052 92.334C143.864 92.334 144.844 92.978 144.942 93.034C145.138 93.16 145.32 93.076 145.432 92.894C145.544 92.726 145.67 92.53 145.782 92.362C145.922 92.152 145.81 91.956 145.698 91.886C145.558 91.788 144.508 91.06 143.108 91.06C140.882 91.06 140.042 92.558 140.042 93.65C140.042 95.274 141.162 96.016 142.59 96.618C143.976 97.192 144.704 97.724 144.704 98.564C144.704 99.278 144.088 99.866 143.122 99.866C142.044 99.866 140.966 98.97 140.882 98.9C140.728 98.774 140.532 98.83 140.406 99.012C140.28 99.194 140.168 99.404 140.042 99.586C139.902 99.824 140 99.922 140.126 100.034Z" fill="black" fill-opacity="0.87"/>
<g clip-path="url(#clip1_190_3303)">
<path d="M125.824 158.24L128.116 154.966C128.417 154.545 128.307 153.955 127.886 153.664C127.466 153.364 126.875 153.474 126.585 153.894L124.292 157.168C123.992 157.589 124.102 158.179 124.522 158.47C124.682 158.58 124.873 158.64 125.063 158.64C125.353 158.63 125.644 158.49 125.824 158.24H125.824Z" fill="black" fill-opacity="0.87"/>
<path d="M131.811 152.714C131.39 152.414 130.8 152.524 130.509 152.944L125.033 160.743C124.733 161.163 124.843 161.754 125.263 162.044C125.423 162.154 125.614 162.214 125.804 162.214C126.094 162.214 126.384 162.074 126.575 161.814L132.041 154.015C132.331 153.595 132.231 153.004 131.811 152.714H131.811Z" fill="black" fill-opacity="0.87"/>
<path d="M139.54 149.59H120.199C119.128 149.59 118.267 150.461 118.267 151.522V166.858C118.267 167.929 119.138 168.79 120.199 168.79H139.54C140.611 168.79 141.472 167.919 141.472 166.858V151.531C141.472 150.46 140.611 149.589 139.54 149.589V149.59ZM139.6 166.869C139.6 166.909 139.57 166.929 139.54 166.929H120.199C120.159 166.929 120.139 166.899 120.139 166.869V151.532C120.139 151.492 120.169 151.462 120.199 151.462H139.54C139.58 151.462 139.6 151.492 139.6 151.532V166.869Z" fill="black" fill-opacity="0.87"/>
<path d="M149.99 134.294V134.264C149.98 134.194 149.97 134.124 149.95 134.054V134.044L143.873 116.164C143.463 114.943 142.322 114.122 141.03 114.122H94.95C93.6584 114.122 92.5174 114.943 92.1069 116.164L86.04 134.053V134.063C86.02 134.133 86 134.203 86 134.273V134.303V134.363V140.19C86 141.721 86.7206 143.093 87.8421 143.974V177.039C87.8421 177.56 88.2626 177.97 88.7731 177.97H147.227C147.747 177.97 148.158 177.55 148.158 177.039V143.964C149.279 143.083 150 141.712 150 140.18V134.354C150 134.334 149.99 134.314 149.99 134.294H149.99ZM93.8786 116.764C94.0387 116.304 94.4692 115.993 94.9497 115.993H135.805H135.815H141.03C141.511 115.993 141.941 116.304 142.101 116.764L147.758 133.412H88.2336L93.8786 116.764ZM140.36 140.249C140.32 141.841 139.018 143.122 137.417 143.122C135.795 143.122 134.474 141.801 134.474 140.179V135.294H140.37V140.179C140.36 140.199 140.36 140.229 140.36 140.249L140.36 140.249ZM132.572 135.284V140.169C132.572 141.791 131.25 143.112 129.618 143.112C128.017 143.112 126.715 141.831 126.675 140.239V140.169V135.284L132.572 135.284ZM124.813 140.249C124.773 141.841 123.471 143.122 121.87 143.122C120.268 143.122 118.967 141.841 118.927 140.249V140.179V135.294H124.813V140.179C124.803 140.199 124.813 140.229 124.813 140.249H124.813ZM117.044 140.249C117.004 141.841 115.703 143.122 114.101 143.122C112.5 143.122 111.198 141.841 111.158 140.249V140.179V135.294H117.044V140.179V140.249H117.044ZM109.286 140.249C109.246 141.841 107.944 143.122 106.343 143.122C104.741 143.122 103.44 141.841 103.399 140.249V140.179V135.294H109.286V140.179C109.276 140.199 109.286 140.229 109.286 140.249H109.286ZM101.517 140.249C101.477 141.841 100.176 143.122 98.5742 143.122C96.9726 143.122 95.6711 141.841 95.631 140.249V140.179V135.294H101.517V140.179V140.249H101.517ZM87.8626 140.179V135.294H93.7589V140.179V140.249C93.7189 141.841 92.4173 143.122 90.8157 143.122C89.184 143.122 87.8625 141.801 87.8625 140.179L87.8626 140.179ZM111.178 176.099H96.6919V151.532C96.6919 151.492 96.7219 151.462 96.7519 151.462H111.118C111.158 151.462 111.178 151.492 111.178 151.532L111.178 176.099ZM146.276 176.099H113.05V151.532C113.05 150.461 112.179 149.6 111.118 149.6H96.7519C95.6808 149.6 94.8197 150.471 94.8197 151.532V176.099H89.7044V144.865C90.0549 144.945 90.425 144.995 90.8055 144.995C92.3971 144.995 93.8087 144.224 94.6897 143.023C95.5707 144.214 96.9823 144.995 98.5739 144.995C100.166 144.995 101.577 144.224 102.458 143.023C103.339 144.214 104.751 144.995 106.342 144.995C107.934 144.995 109.345 144.224 110.226 143.023C111.108 144.214 112.519 144.995 114.111 144.995C115.702 144.995 117.114 144.224 117.995 143.023C118.876 144.214 120.288 144.995 121.879 144.995C123.471 144.995 124.882 144.224 125.763 143.023C126.644 144.214 128.056 144.995 129.647 144.995C131.249 144.995 132.661 144.214 133.542 143.013C134.423 144.214 135.834 144.995 137.436 144.995C139.027 144.995 140.439 144.224 141.32 143.023C142.201 144.214 143.613 144.995 145.204 144.995C145.585 144.995 145.955 144.945 146.305 144.865V176.099H146.276ZM148.128 140.179C148.128 141.801 146.807 143.123 145.175 143.123C143.573 143.123 142.272 141.841 142.232 140.249V140.179V135.294H148.128L148.128 140.179Z" fill="black" fill-opacity="0.87"/>
<path d="M108.896 159.922C109.416 159.922 109.827 159.502 109.827 158.991C109.827 158.47 109.406 158.06 108.896 158.06C107.394 158.06 106.183 159.282 106.183 160.773V166.81C106.183 168.311 107.404 169.523 108.896 169.523C109.416 169.523 109.827 169.102 109.827 168.592C109.827 168.071 109.406 167.661 108.896 167.661C108.435 167.661 108.055 167.28 108.055 166.82V160.783C108.055 160.302 108.435 159.922 108.896 159.922V159.922Z" fill="black" fill-opacity="0.87"/>
</g>
<rect x="315" y="143" width="28" height="31" fill="white"/>
<path d="M310.21 100.734C310.21 100.874 310.322 101 310.462 101H313.682C316.384 101 318.596 98.802 318.596 96.086C318.596 93.398 316.384 91.2 313.682 91.2H310.462C310.322 91.2 310.21 91.326 310.21 91.466V100.734ZM311.638 99.67V92.53H313.486C315.544 92.53 317.042 94.028 317.042 96.086C317.042 98.158 315.544 99.67 313.486 99.67H311.638ZM322.014 100.734C322.014 100.874 322.126 101 322.28 101H327.88C328.034 101 328.146 100.874 328.146 100.734V99.964C328.146 99.824 328.034 99.698 327.88 99.698H323.456V96.688H327.194C327.334 96.688 327.46 96.576 327.46 96.422V95.638C327.46 95.498 327.334 95.372 327.194 95.372H323.456V92.516H327.88C328.034 92.516 328.146 92.39 328.146 92.25V91.466C328.146 91.326 328.034 91.2 327.88 91.2H322.28C322.126 91.2 322.014 91.326 322.014 91.466V100.734ZM331.112 100.034C331.336 100.244 332.414 101.14 334.122 101.14C335.942 101.14 337.244 99.95 337.244 98.494C337.244 96.786 335.858 96.016 334.234 95.358C333.072 94.882 332.456 94.392 332.456 93.594C332.456 93.076 332.862 92.334 334.038 92.334C334.85 92.334 335.83 92.978 335.928 93.034C336.124 93.16 336.306 93.076 336.418 92.894C336.53 92.726 336.656 92.53 336.768 92.362C336.908 92.152 336.796 91.956 336.684 91.886C336.544 91.788 335.494 91.06 334.094 91.06C331.868 91.06 331.028 92.558 331.028 93.65C331.028 95.274 332.148 96.016 333.576 96.618C334.962 97.192 335.69 97.724 335.69 98.564C335.69 99.278 335.074 99.866 334.108 99.866C333.03 99.866 331.952 98.97 331.868 98.9C331.714 98.774 331.518 98.83 331.392 99.012C331.266 99.194 331.154 99.404 331.028 99.586C330.888 99.824 330.986 99.922 331.112 100.034ZM340.578 100.734C340.578 100.874 340.704 101 340.844 101H341.768C341.908 101 342.034 100.874 342.034 100.734V91.466C342.034 91.326 341.908 91.2 341.768 91.2H340.844C340.704 91.2 340.578 91.326 340.578 91.466V100.734ZM345.433 96.114C345.433 98.914 347.687 101.14 350.473 101.14C352.503 101.14 353.945 100.216 353.945 100.216C354.001 100.174 354.057 100.062 354.057 99.992C354.057 98.872 354.043 97.724 354.043 96.604C354.043 96.464 353.931 96.338 353.791 96.338H351.243C351.089 96.338 350.977 96.45 350.977 96.604V97.416C350.977 97.556 351.089 97.668 351.243 97.668H352.615V99.236C352.475 99.292 351.677 99.712 350.515 99.712C348.527 99.712 347.001 98.032 347.001 96.086C347.001 94.126 348.527 92.446 350.515 92.446C351.369 92.446 352.237 92.824 352.895 93.398C353.035 93.524 353.147 93.538 353.259 93.412C353.469 93.188 353.679 92.978 353.889 92.754C354.001 92.642 353.987 92.474 353.875 92.362C352.923 91.55 351.817 91.06 350.473 91.06C347.687 91.06 345.433 93.314 345.433 96.114ZM357.651 100.734C357.651 100.874 357.777 101 357.917 101H358.799C358.953 101 359.065 100.874 359.065 100.734V93.916H359.079L365.155 101.14H365.519C365.659 101.14 365.785 101.028 365.785 100.888V91.466C365.785 91.326 365.659 91.2 365.519 91.2H364.623C364.469 91.2 364.357 91.326 364.357 91.466V98.088H364.343L358.267 91.06H357.917C357.777 91.06 357.651 91.172 357.651 91.312V100.734Z" fill="black" fill-opacity="0.87"/>
<path d="M369.943 127.567C369.955 127.534 369.954 127.499 369.961 127.466C369.983 127.381 370 127.298 369.995 127.211C369.995 127.199 370.001 127.188 370 127.174L369.483 121.501C369.464 121.296 369.373 121.104 369.229 120.959L363.041 114.771C362.895 114.625 362.703 114.534 362.497 114.516L356.826 114C356.814 113.999 356.802 114.006 356.789 114.005C356.703 114 356.619 114.018 356.534 114.038C356.501 114.047 356.465 114.045 356.432 114.057C356.32 114.1 356.213 114.164 356.122 114.254L312.188 158.191L311.758 158.622C311.587 158.793 311.067 159.312 306.15 173.858C306.139 173.891 306.131 173.923 306.123 173.957C306.016 174.454 305.692 175.971 306.861 177.139C308.029 178.308 309.545 177.983 310.043 177.876C310.076 177.868 310.108 177.859 310.141 177.849C324.687 172.932 325.205 172.412 325.378 172.242L325.809 171.811L369.746 127.877C369.837 127.786 369.901 127.679 369.943 127.567L369.943 127.567ZM362.019 116.243L367.756 121.979L368.148 126.28L363.847 125.887L358.112 120.152L357.721 115.852L362.019 116.243ZM361.832 126.365L318.749 169.449C317.987 168.937 317.209 168.31 316.45 167.55C316.449 167.549 316.449 167.549 316.448 167.547C315.689 166.788 315.061 166.012 314.551 165.251L357.634 122.168L361.832 126.365ZM313.436 159.437L313.788 159.085L356.039 116.83L356.386 120.629C356.391 120.694 356.416 120.752 356.436 120.814L313.628 163.62C312.77 161.755 312.714 160.159 313.436 159.436L313.436 159.437ZM312.297 175.252C311.612 174.929 310.894 174.429 310.232 173.767C309.571 173.106 309.07 172.388 308.747 171.704C309.704 168.912 310.794 165.784 311.651 163.421C312.27 165.177 313.478 167.07 315.201 168.794L315.204 168.797C316.927 170.521 318.821 171.73 320.576 172.348C318.213 173.205 315.088 174.294 312.297 175.252L312.297 175.252ZM324.784 170.341L324.561 170.563C323.839 171.286 322.245 171.23 320.38 170.371L363.187 127.565C363.247 127.584 363.306 127.61 363.372 127.616L367.169 127.962L324.784 170.341ZM361.684 122.314C363.03 123.659 364.68 124.189 365.368 123.5C366.058 122.811 365.526 121.161 364.183 119.817C362.84 118.473 361.188 117.941 360.5 118.631C359.81 119.321 360.342 120.97 361.684 122.314H361.684Z" fill="black"/>
<rect x="110" y="276" width="37" height="46" fill="white"/>
<g clip-path="url(#clip2_190_3303)">
<path d="M113.743 279.61L100.73 281.866L98.9458 280.449H97.0567V282.129L98.0537 283.598C97.9488 284.525 97.7389 286.442 97.7389 286.694C97.7389 287.009 97.0567 290.997 97.0567 291.312V295.772L96.4795 302.593L97.7389 306.791V310.517L96.4795 311.829V313.456C97.1442 313.945 98.568 314.799 98.9458 314.295C99.3236 313.791 100.642 313.036 101.255 312.721L105.243 313.456L110.91 314.925L123.871 315.397C127.754 315.1 135.625 314.463 136.045 314.295C136.465 314.127 141.957 313.665 144.651 313.456L146.172 314.925L148.901 313.456V311.829L147.222 309.52L147.956 306.214L148.901 298.973L148.376 290.997L147.484 284.175L148.901 281.866C148.656 281.446 148.124 280.575 147.956 280.449C147.788 280.324 146.697 280.012 146.172 279.872L144.651 281.866L140.243 280.869L129.433 278.98L113.743 279.61Z" fill="white"/>
<path d="M122.904 316.481H122.821C115.747 316.475 108.579 315.68 101.499 314.119C100.931 315.017 99.9311 315.597 98.8145 315.597C97.0625 315.597 95.6367 314.172 95.6367 312.419C95.6367 311.374 96.1524 310.419 96.969 309.835C95.2116 301.437 95.1972 293.02 96.9259 284.79C96.1356 284.201 95.6367 283.257 95.6367 282.238C95.6367 280.486 97.062 279.06 98.8144 279.06C99.8356 279.06 100.779 279.56 101.368 280.352C108.462 278.791 115.644 278 122.733 278H122.814C129.923 278.006 137.129 278.808 144.243 280.385C144.828 279.573 145.78 279.061 146.821 279.061C148.573 279.061 149.999 280.486 149.999 282.238C149.999 283.264 149.495 284.211 148.698 284.799C150.435 293.199 150.428 301.616 148.679 309.844C149.488 310.43 150 311.382 150 312.42C150 314.172 148.574 315.598 146.822 315.598C145.726 315.598 144.734 315.031 144.16 314.153C137.102 315.698 129.956 316.481 122.903 316.481L122.904 316.481ZM100.81 311.639C100.896 311.639 100.982 311.649 101.068 311.669C108.287 313.332 115.606 314.179 122.823 314.185H122.904C130.095 314.185 137.386 313.351 144.579 311.707C144.88 311.638 145.197 311.693 145.457 311.861C145.717 312.029 145.898 312.294 145.96 312.597C146.043 313.005 146.406 313.301 146.824 313.301C147.31 313.301 147.706 312.906 147.706 312.419C147.706 312.026 147.441 311.677 147.061 311.572C146.47 311.407 146.113 310.808 146.249 310.21C148.178 301.756 148.186 293.083 146.274 284.432C146.144 283.843 146.493 283.253 147.072 283.083C147.446 282.974 147.706 282.626 147.706 282.238C147.706 281.752 147.31 281.356 146.824 281.356C146.428 281.356 146.079 281.623 145.975 282.005C145.812 282.599 145.209 282.96 144.609 282.821C137.377 281.151 130.044 280.301 122.813 280.295H122.734C115.529 280.295 108.224 281.132 101.017 282.783C100.426 282.919 99.8309 282.571 99.6599 281.989C99.5505 281.616 99.2028 281.356 98.8147 281.356C98.3285 281.356 97.9325 281.752 97.9325 282.238C97.9325 282.625 98.1912 282.972 98.5617 283.083C99.1397 283.255 99.4857 283.846 99.3529 284.435C97.4487 292.891 97.4644 301.564 99.3996 310.212C99.5337 310.811 99.1734 311.409 98.5818 311.57C98.1994 311.675 97.9325 312.024 97.9325 312.419C97.9325 312.906 98.3281 313.302 98.8147 313.302C99.2397 313.302 99.6038 312.998 99.6804 312.58C99.737 312.272 99.9169 312 100.179 311.828C100.368 311.703 100.588 311.639 100.81 311.639L100.81 311.639Z" fill="black" fill-opacity="0.87"/>
<path d="M104.107 305.185L91.0932 307.442L89.309 306.025H87.42V307.704L88.417 309.173C88.312 310.1 88.1021 312.017 88.1021 312.269C88.1021 312.584 87.42 316.572 87.42 316.887V321.347L86.8428 328.169L88.1021 332.367V336.092L86.8428 337.404V339.031C87.5074 339.521 88.9312 340.374 89.309 339.87C89.6869 339.367 91.0057 338.611 91.6179 338.296L95.6059 339.031L101.273 340.5L114.234 340.972C118.117 340.675 125.988 340.038 126.408 339.87C126.828 339.702 132.32 339.241 135.014 339.031L136.536 340.5L139.264 339.031V337.404L137.585 335.095L138.32 331.789L139.264 324.548L138.739 316.572L137.847 309.75L139.264 307.442C139.019 307.022 138.488 306.151 138.32 306.025C138.152 305.899 137.06 305.587 136.536 305.448L135.014 307.442L130.606 306.445L119.796 304.555L104.107 305.185Z" fill="white"/>
<path d="M113.268 342.056H113.184C106.111 342.05 98.9427 341.256 91.8624 339.695C91.2942 340.592 90.2944 341.172 89.1777 341.172C87.4257 341.172 86 339.747 86 337.995C86 336.95 86.5157 335.995 87.3322 335.41C85.5749 327.012 85.5605 318.596 87.2892 310.365C86.4989 309.776 86 308.833 86 307.813C86 306.061 87.4253 304.636 89.1777 304.636C90.1989 304.636 91.1425 305.135 91.7312 305.927C98.825 304.366 106.007 303.575 113.096 303.575H113.177C120.287 303.581 127.492 304.384 134.606 305.96C135.191 305.148 136.144 304.636 137.185 304.636C138.937 304.636 140.362 306.061 140.362 307.814C140.362 308.839 139.859 309.786 139.061 310.374C140.798 318.775 140.792 327.191 139.042 335.42C139.852 336.005 140.363 336.957 140.363 337.995C140.363 339.747 138.938 341.173 137.185 341.173C136.09 341.173 135.097 340.606 134.523 339.729C127.465 341.273 120.319 342.056 113.266 342.056L113.268 342.056ZM91.1732 337.215C91.2593 337.215 91.3458 337.224 91.431 337.244C98.6498 338.908 105.97 339.754 113.186 339.761H113.268C120.458 339.761 127.749 338.927 134.942 337.282C135.243 337.213 135.56 337.269 135.82 337.436C136.08 337.604 136.261 337.869 136.323 338.172C136.406 338.58 136.77 338.877 137.187 338.877C137.674 338.877 138.069 338.481 138.069 337.995C138.069 337.601 137.804 337.252 137.424 337.147C136.834 336.982 136.476 336.383 136.613 335.785C138.541 327.331 138.55 318.658 136.638 310.008C136.507 309.418 136.856 308.828 137.436 308.659C137.809 308.549 138.069 308.202 138.069 307.813C138.069 307.327 137.674 306.931 137.187 306.931C136.792 306.931 136.443 307.198 136.338 307.58C136.176 308.175 135.573 308.535 134.972 308.396C127.741 306.726 120.408 305.876 113.176 305.87H113.097C105.893 305.87 98.5868 306.707 91.3805 308.359C90.7894 308.494 90.1942 308.146 90.0232 307.564C89.9137 307.191 89.5661 306.931 89.1779 306.931C88.6918 306.931 88.2958 307.327 88.2958 307.813C88.2958 308.2 88.5544 308.547 88.925 308.658C89.503 308.83 89.849 309.421 89.7162 310.01C87.812 318.466 87.8277 327.139 89.7629 335.788C89.8969 336.386 89.5366 336.984 88.9451 337.146C88.5626 337.25 88.2958 337.599 88.2958 337.995C88.2958 338.481 88.6914 338.877 89.1779 338.877C89.603 338.877 89.967 338.573 90.0437 338.156C90.1003 337.847 90.2802 337.576 90.5422 337.403C90.7316 337.278 90.9509 337.214 91.173 337.214L91.1732 337.215Z" fill="black" fill-opacity="0.87"/>
</g>
<path d="M77.667 364.734C77.667 364.874 77.779 365 77.933 365H78.843C78.983 365 79.109 364.874 79.109 364.734V361.444H81.139C82.847 361.444 84.261 360.03 84.261 358.294C84.261 356.6 82.847 355.2 81.125 355.2H77.933C77.779 355.2 77.667 355.326 77.667 355.466V364.734ZM79.109 360.072V356.6H81.041C82.007 356.6 82.819 357.328 82.819 358.28C82.819 359.288 82.007 360.072 81.041 360.072H79.109ZM87.3795 364.734C87.3795 364.874 87.4915 365 87.6455 365H88.5555C88.6955 365 88.8215 364.874 88.8215 364.734V361.164H90.9355L92.7975 364.874C92.8255 364.93 92.9095 365 93.0215 365H94.1135C94.3515 365 94.4495 364.776 94.3515 364.594L92.4335 361.038C93.6515 360.548 94.5055 359.484 94.5055 358.196C94.5055 356.53 93.1335 355.2 91.4535 355.2H87.6455C87.4915 355.2 87.3795 355.326 87.3795 355.466V364.734ZM88.8495 359.96V356.558H91.3415C92.2515 356.558 93.0495 357.314 93.0495 358.224C93.0495 359.19 92.2515 359.96 91.3415 359.96H88.8495ZM97.376 360.114C97.376 362.914 99.602 365.14 102.402 365.14C105.202 365.14 107.442 362.914 107.442 360.114C107.442 357.314 105.202 355.06 102.402 355.06C99.602 355.06 97.376 357.314 97.376 360.114ZM98.776 360.114C98.776 358.126 100.414 356.46 102.402 356.46C104.404 356.46 106.042 358.126 106.042 360.114C106.042 362.116 104.404 363.74 102.402 363.74C100.414 363.74 98.776 362.116 98.776 360.114ZM110.838 364.734C110.838 364.874 110.95 365 111.09 365H114.31C117.012 365 119.224 362.802 119.224 360.086C119.224 357.398 117.012 355.2 114.31 355.2H111.09C110.95 355.2 110.838 355.326 110.838 355.466V364.734ZM112.266 363.67V356.53H114.114C116.172 356.53 117.67 358.028 117.67 360.086C117.67 362.158 116.172 363.67 114.114 363.67H112.266ZM122.516 361.346C122.516 363.474 124.112 365.14 126.31 365.14C128.522 365.14 130.132 363.474 130.132 361.346V355.466C130.132 355.326 130.006 355.2 129.866 355.2H128.928C128.774 355.2 128.662 355.326 128.662 355.466V361.276C128.662 362.662 127.752 363.74 126.31 363.74C124.882 363.74 123.986 362.648 123.986 361.248V355.466C123.986 355.326 123.874 355.2 123.72 355.2H122.782C122.642 355.2 122.516 355.326 122.516 355.466V361.346ZM133.404 360.114C133.404 362.914 135.658 365.14 138.458 365.14C139.704 365.14 140.908 364.706 141.86 363.782C141.958 363.684 141.986 363.502 141.874 363.404L141.23 362.774C141.146 362.704 141.02 362.69 140.894 362.788C140.222 363.306 139.508 363.712 138.486 363.712C136.484 363.712 134.958 362.046 134.958 360.086C134.958 358.126 136.47 356.446 138.472 356.446C139.34 356.446 140.236 356.81 140.894 357.384C141.02 357.51 141.146 357.51 141.244 357.384L141.86 356.754C141.972 356.642 141.972 356.474 141.846 356.362C140.894 355.536 139.872 355.06 138.458 355.06C135.658 355.06 133.404 357.314 133.404 360.114ZM146.61 364.734C146.61 364.874 146.736 365 146.876 365H147.8C147.94 365 148.066 364.874 148.066 364.734V356.516H150.348C150.502 356.516 150.614 356.39 150.614 356.25V355.466C150.614 355.326 150.502 355.2 150.348 355.2H144.328C144.174 355.2 144.062 355.326 144.062 355.466V356.25C144.062 356.39 144.174 356.516 144.328 356.516H146.61V364.734ZM152.983 364.034C153.207 364.244 154.285 365.14 155.993 365.14C157.813 365.14 159.115 363.95 159.115 362.494C159.115 360.786 157.729 360.016 156.105 359.358C154.943 358.882 154.327 358.392 154.327 357.594C154.327 357.076 154.733 356.334 155.909 356.334C156.721 356.334 157.701 356.978 157.799 357.034C157.995 357.16 158.177 357.076 158.289 356.894C158.401 356.726 158.527 356.53 158.639 356.362C158.779 356.152 158.667 355.956 158.555 355.886C158.415 355.788 157.365 355.06 155.965 355.06C153.739 355.06 152.899 356.558 152.899 357.65C152.899 359.274 154.019 360.016 155.447 360.618C156.833 361.192 157.561 361.724 157.561 362.564C157.561 363.278 156.945 363.866 155.979 363.866C154.901 363.866 153.823 362.97 153.739 362.9C153.585 362.774 153.389 362.83 153.263 363.012C153.137 363.194 153.025 363.404 152.899 363.586C152.759 363.824 152.857 363.922 152.983 364.034Z" fill="black" fill-opacity="0.87"/>
<defs>
<clipPath id="clip0_190_3303">
<rect width="64" height="64" fill="white" transform="translate(306 278)"/>
</clipPath>
<clipPath id="clip1_190_3303">
<rect width="64" height="64" fill="white" transform="translate(86 114)"/>
</clipPath>
<clipPath id="clip2_190_3303">
<rect width="64" height="64" fill="white" transform="translate(86 278)"/>
</clipPath>
</defs>
</svg>
