<svg width="48" height="48" viewBox="0 0 48 48" fill="none" xmlns="http://www.w3.org/2000/svg">
<g clip-path="url(#clip0_190_3427)">
<path d="M20.8073 1.20737L11.0472 2.89965L9.70908 1.83706H8.29228V3.09643L9.04004 4.19838C8.96133 4.89366 8.80391 6.33145 8.80391 6.52035C8.80391 6.75648 8.29228 9.7475 8.29228 9.98363V13.3288L7.85938 18.445L8.80391 21.5935V24.3877L7.85938 25.3716V26.5916C8.35788 26.9589 9.42572 27.5991 9.70908 27.2213C9.99244 26.8435 10.9816 26.2768 11.4407 26.0406L14.4317 26.5916L18.6821 27.6936L28.4029 28.0478C31.3152 27.8247 37.2185 27.3472 37.5334 27.2213C37.8482 27.0954 41.9674 26.749 43.9877 26.5916L45.129 27.6936L47.1754 26.5916V25.3716L45.9161 23.64L46.467 21.1606L47.1754 15.7295L46.7819 9.7475L46.1128 4.63129L47.1754 2.89965C46.9918 2.58481 46.593 1.93151 46.467 1.83706C46.3411 1.74261 45.5225 1.5091 45.129 1.40415L43.9877 2.89965L40.6818 2.1519L32.5746 0.735107L20.8073 1.20737Z" fill="white"/>
<path d="M27.6782 28.8607H27.6158C22.3105 28.8561 16.9346 28.2603 11.6243 27.0895C11.1982 27.7628 10.4484 28.1978 9.61085 28.1978C8.29685 28.1978 7.22755 27.1288 7.22755 25.8145C7.22755 25.0309 7.61432 24.3145 8.22672 23.8764C6.90871 17.5775 6.89793 11.2653 8.19444 5.09243C7.60169 4.65063 7.22754 3.94293 7.22754 3.17862C7.22754 1.86462 8.29652 0.795323 9.61083 0.795323C10.3767 0.795323 11.0844 1.1701 11.5259 1.76412C16.8463 0.593364 22.2331 0 27.5497 0H27.6105C32.9425 0.0046117 38.3468 0.60628 43.6823 1.78875C44.121 1.1797 44.8352 0.795402 45.6161 0.795402C46.9301 0.795402 47.9994 1.86439 47.9994 3.1787C47.9994 3.94792 47.6215 4.65813 47.0236 5.09928C48.3263 11.3995 48.3213 17.7119 47.0091 23.8832C47.6163 24.3226 47.9997 25.0361 47.9997 25.8149C47.9997 27.1289 46.9308 28.1982 45.6164 28.1982C44.7947 28.1982 44.0504 27.773 43.6199 27.1151C38.3263 28.2735 32.9671 28.8608 27.6772 28.8608L27.6782 28.8607ZM11.1074 25.2294C11.172 25.2294 11.2369 25.2368 11.3008 25.2516C16.7149 26.4992 22.2047 27.1344 27.6174 27.1389H27.6782C33.0712 27.1389 38.5397 26.5136 43.9342 25.2801C44.1601 25.2285 44.3978 25.27 44.5927 25.3957C44.7876 25.5215 44.9235 25.7204 44.9699 25.9479C45.0321 26.2538 45.3048 26.4761 45.618 26.4761C45.9827 26.4761 46.2797 26.1794 46.2797 25.8145C46.2797 25.5193 46.0807 25.2577 45.7957 25.1787C45.3527 25.0551 45.0846 24.6059 45.187 24.1576C46.6335 17.8172 46.6397 11.312 45.2058 4.8243C45.108 4.38219 45.3696 3.9398 45.8044 3.81254C46.0841 3.73045 46.2794 3.46973 46.2794 3.17858C46.2794 2.81395 45.9827 2.51696 45.6177 2.51696C45.3214 2.51696 45.0594 2.71711 44.981 3.00365C44.8593 3.44945 44.407 3.71969 43.9569 3.61546C38.533 2.36325 33.0333 1.72589 27.6097 1.72133H27.5503C22.147 1.72133 16.6677 2.34913 11.2629 3.58752C10.8196 3.68898 10.3732 3.42796 10.2449 2.99139C10.1628 2.71192 9.90214 2.517 9.61099 2.517C9.24636 2.517 8.94937 2.81369 8.94937 3.17862C8.94937 3.46854 9.14336 3.72895 9.4213 3.81196C9.85479 3.94139 10.1143 4.38442 10.0147 4.82593C8.58655 11.1682 8.59828 17.6731 10.0497 24.1593C10.1503 24.6081 9.88001 25.0567 9.43636 25.1778C9.14952 25.2562 8.94937 25.5178 8.94937 25.8145C8.94937 26.1791 9.24605 26.4761 9.61099 26.4761C9.92981 26.4761 10.2028 26.2486 10.2603 25.9353C10.3027 25.7041 10.4377 25.5003 10.6342 25.3712C10.7762 25.2774 10.9407 25.2291 11.1073 25.2291L11.1074 25.2294Z" fill="#F9B703"/>
<path d="M13.5798 20.3888L3.81962 22.0811L2.48154 21.0185H1.06475V22.2778L1.8125 23.3798C1.73379 24.0751 1.57637 25.5128 1.57637 25.7017C1.57637 25.9379 1.06475 28.9289 1.06475 29.165V32.5102L0.631836 37.6264L1.57637 40.7749V43.5691L0.631836 44.553V45.773C1.13034 46.1403 2.19818 46.7805 2.48154 46.4027C2.7649 46.0249 3.75403 45.4582 4.21318 45.222L7.20419 45.773L11.4546 46.875L21.1754 47.2292C24.0877 47.0061 29.991 46.5286 30.3058 46.4027C30.6207 46.2768 34.7399 45.9304 36.7601 45.773L37.9014 46.875L39.9479 45.773V44.553L38.6885 42.8214L39.2395 40.342L39.9479 34.9109L39.5543 28.9289L38.8853 23.8127L39.9479 22.0811C39.7642 21.7662 39.3654 21.1129 39.2395 21.0185C39.1136 20.924 38.295 20.6905 37.9014 20.5855L36.7601 22.0811L33.4543 21.3333L25.347 19.9165L13.5798 20.3888Z" fill="white"/>
<path d="M20.4507 48.0421H20.3882C15.083 48.0375 9.70706 47.4416 4.39676 46.2709C3.97064 46.9442 3.22082 47.3792 2.38331 47.3792C1.06931 47.3792 1.26101e-05 46.3102 1.26101e-05 44.9959C1.26101e-05 44.2122 0.386782 43.4959 0.999185 43.0578C-0.318825 36.7589 -0.329608 30.4467 0.966903 24.2738C0.374153 23.832 0 23.1243 0 22.36C0 21.046 1.06898 19.9767 2.3833 19.9767C3.14914 19.9767 3.85691 20.3515 4.29837 20.9455C9.61874 19.7748 15.0055 19.1814 20.3221 19.1814H20.383C25.715 19.186 31.1193 19.7877 36.4548 20.9701C36.8935 20.3611 37.6076 19.9768 38.3886 19.9768C39.7026 19.9768 40.7719 21.0458 40.7719 22.3601C40.7719 23.1293 40.394 23.8395 39.7961 24.2807C41.0987 30.5808 41.0938 36.8933 39.7816 43.0646C40.3888 43.504 40.7722 44.2175 40.7722 44.9963C40.7722 46.3103 39.7032 47.3796 38.3889 47.3796C37.5671 47.3796 36.8228 46.9544 36.3924 46.2965C31.0988 47.4549 25.7395 48.0422 20.4497 48.0422L20.4507 48.0421ZM3.8799 44.4108C3.94446 44.4108 4.00933 44.4182 4.07328 44.433C9.48739 45.6806 14.9772 46.3158 20.3898 46.3203H20.4507C25.8436 46.3203 31.3121 45.695 36.7066 44.4615C36.9326 44.4099 37.1702 44.4514 37.3652 44.5771C37.5601 44.7029 37.696 44.9018 37.7424 45.1293C37.8045 45.4352 38.0772 45.6575 38.3905 45.6575C38.7551 45.6575 39.0521 45.3608 39.0521 44.9959C39.0521 44.7007 38.8532 44.4391 38.5682 44.3601C38.1252 44.2365 37.8571 43.7873 37.9595 43.339C39.406 36.9985 39.4121 30.4934 37.9782 24.0057C37.8804 23.5636 38.1421 23.1212 38.5768 22.9939C38.8566 22.9118 39.0518 22.6511 39.0518 22.36C39.0518 21.9953 38.7551 21.6984 38.3902 21.6984C38.0938 21.6984 37.8319 21.8985 37.7535 22.185C37.6317 22.6308 37.1795 22.9011 36.7294 22.7969C31.3054 21.5446 25.8058 20.9073 20.3821 20.9027H20.3228C14.9195 20.9027 9.44012 21.5305 4.03538 22.7689C3.59205 22.8704 3.14561 22.6094 3.0174 22.1728C2.93531 21.8933 2.6746 21.6984 2.38345 21.6984C2.01882 21.6984 1.72183 21.9951 1.72183 22.36C1.72183 22.6499 1.91582 22.9103 2.19376 22.9934C2.62726 23.1228 2.88674 23.5658 2.78713 24.0073C1.35901 30.3496 1.37074 36.8545 2.82218 43.3406C2.92271 43.7895 2.65247 44.2381 2.20882 44.3592C1.92198 44.4376 1.72183 44.6992 1.72183 44.9959C1.72183 45.3605 2.01851 45.6575 2.38345 45.6575C2.70227 45.6575 2.97528 45.43 3.03277 45.1167C3.0752 44.8855 3.21017 44.6817 3.40663 44.5526C3.54867 44.4588 3.71315 44.4105 3.87978 44.4105L3.8799 44.4108Z" fill="#F9B703"/>
</g>
<defs>
<clipPath id="clip0_190_3427">
<rect width="48" height="48" fill="white"/>
</clipPath>
</defs>
</svg>
