<svg width="48" height="48" viewBox="0 0 48 48" fill="none" xmlns="http://www.w3.org/2000/svg">
<g clip-path="url(#clip0_190_3399)">
<path d="M32.5383 6.19759H32.5345H32.5348C32.3166 6.1913 32.1057 6.27559 31.9511 6.42983C31.4972 6.89009 31.7119 7.64589 32.6919 9.03788C33.4166 10.0672 34.4826 11.3221 35.6933 12.5717H35.6937C36.6916 13.6143 37.7576 14.5897 38.8848 15.491C40.1865 16.5049 40.7699 16.6836 41.1099 16.6836C41.1414 16.6839 41.1729 16.6822 41.204 16.679C41.3897 16.665 41.5642 16.5856 41.6964 16.4548L41.6999 16.4513C42.1535 15.9911 41.9388 15.2353 40.9592 13.8433C40.2345 12.814 39.1685 11.5591 37.9577 10.3098C37.2932 9.62397 33.9087 6.20244 32.5385 6.19751L32.5383 6.19759ZM36.5377 11.7537C34.8005 9.96153 33.7397 8.55701 33.2414 7.73759C34.0388 8.2594 35.3951 9.35413 37.1137 11.1283C38.8503 12.9205 39.9106 14.3236 40.4094 15.1434C39.6127 14.6213 38.2564 13.5265 36.5378 11.7537L36.5377 11.7537Z" fill="#F9B703"/>
<path d="M40.234 8.06015C35.6307 3.26621 30.7344 0.0275766 28.0502 0H28.0145C27.3346 0 26.7911 0.198659 26.3994 0.590372C25.3974 1.59101 25.6383 3.58592 27.0901 6.37161L24.6874 8.77364C24.6339 8.79497 24.5807 8.81735 24.5282 8.84044L15.8713 12.7037C15.5324 12.8537 15.1495 12.8705 14.7987 12.7505C14.4479 12.6309 14.1552 12.3833 13.9789 12.0573C13.8639 11.845 13.8037 11.6072 13.8037 11.3655C13.8037 11.0798 13.8869 10.8004 14.0429 10.5611C14.1993 10.3219 14.4217 10.133 14.6833 10.018L15.1855 9.79869C15.4832 9.66894 15.6189 9.32269 15.4891 9.02506C15.3594 8.72778 15.0131 8.59173 14.7155 8.72149L14.2122 8.94147C13.4645 9.26883 12.9098 9.92357 12.7101 10.7151C12.51 11.5065 12.6874 12.3459 13.1899 12.9894C13.6929 13.6326 14.4647 14.0071 15.281 14.0044C15.6496 14.0044 16.0141 13.9267 16.3509 13.7763L22.3696 11.0903L6.7226 26.7311C3.83055 25.0075 1.75139 24.6522 0.695507 25.708C-0.310681 26.7142 -0.0595899 28.7368 1.42193 31.5568C2.77757 34.1372 5.01834 37.1145 7.73204 39.9405C10.2142 42.5258 12.8778 44.7488 15.2323 46.2009C16.6456 47.0725 18.4934 47.9997 19.9584 47.9997C20.2753 48.0046 20.59 47.9518 20.888 47.8444C21.143 47.75 21.3745 47.6024 21.5672 47.4107C22.5255 46.4548 22.3444 44.5768 21.0482 41.9669L41.5659 21.4573C43.4766 22.5495 44.7836 22.8797 45.6652 22.8794V22.8797C45.9814 22.8853 46.2962 22.8332 46.5938 22.7262C46.8477 22.6314 47.0786 22.4838 47.2709 22.2929C48.2771 21.2867 48.026 19.2641 46.5445 16.4441C45.1889 13.8637 42.9481 10.8864 40.2341 8.06038L40.234 8.06015ZM6.46253 28.6522L7.10011 28.0156C7.62297 30.2435 9.91453 33.4121 12.2718 35.8674C15.0725 38.7846 18.0443 40.8704 20.005 41.3486L19.2988 42.0543L19.3016 42.061L19.2964 42.0557C19.1999 42.1523 19.0152 42.1712 18.8781 42.1694C17.5589 42.1558 14.5126 40.3602 11.2429 36.9544C7.03583 32.5714 5.89462 29.2201 6.46254 28.6521L6.46253 28.6522ZM20.7361 46.5796C20.6613 46.6531 20.5714 46.7097 20.4727 46.7451C19.6501 47.0563 17.9214 46.4789 15.8487 45.201C13.5768 43.7996 10.9946 41.6427 8.57935 39.1269C2.61833 32.919 0.45375 27.611 1.5261 26.5393C2.19831 25.8671 4.15689 26.6211 5.86154 27.5917L5.63176 27.8215C4.88016 28.5727 5.03195 30.0221 6.07068 32.0121C6.99333 33.7801 8.52938 35.8243 10.3953 37.7678C13.579 41.0841 16.983 43.3249 18.866 43.3441H18.8926C19.4081 43.3441 19.823 43.1903 20.1272 42.8863L20.1185 42.8776L20.1674 42.8468C21.1716 44.9921 21.14 46.177 20.7361 46.5799L20.7361 46.5796ZM21.188 40.1653C21.0921 40.2611 20.9078 40.2783 20.7718 40.2779C19.4491 40.2643 16.3961 38.4652 13.1197 35.0534C11.4843 33.3505 10.0878 31.5378 9.18576 29.9492C8.30895 28.4044 8.09075 27.4031 8.18092 26.9351L9.53441 25.582C10.0492 27.8081 12.3404 30.9792 14.7103 33.4474C17.5086 36.3615 20.4744 38.4456 22.4299 38.9244L21.188 40.1653ZM23.6127 37.7416C23.5169 37.8374 23.3333 37.8556 23.1965 37.8546C21.879 37.8409 18.8325 36.0429 15.5582 32.6336C11.9076 28.8316 10.3844 25.5447 10.6226 24.4948L11.9786 23.1388C12.4903 25.3652 14.7811 28.5382 17.1555 31.0112C19.9514 33.9229 22.9165 36.0048 24.8723 36.4825L23.6127 37.7416ZM26.0568 35.2987C25.9602 35.3952 25.7756 35.4137 25.6388 35.4123C24.3202 35.399 21.274 33.6035 18.0032 30.1973C14.3389 26.3816 12.8207 23.0923 13.0691 22.0486L14.424 20.6944C14.9378 22.9198 17.2282 26.0913 19.5999 28.5619C22.3975 31.4749 25.3633 33.5583 27.3195 34.0367L26.0568 35.2987ZM28.5032 32.8533C28.407 32.9495 28.2251 32.9684 28.0859 32.9666C26.7677 32.9533 23.7208 31.1563 20.4476 27.7481C16.7914 23.9394 15.2707 20.6529 15.5127 19.6064L16.8726 18.2469C17.3898 20.4737 19.681 23.6445 22.047 26.1091C24.8461 29.0239 27.8139 31.108 29.7714 31.5861L28.5032 32.8533ZM30.9549 30.4027L30.9542 30.402C30.858 30.4981 30.6769 30.5163 30.5373 30.5153C29.2178 30.502 26.169 28.7043 22.8948 25.295C19.256 21.5052 17.7291 18.2186 17.9581 17.1617L19.3487 15.7711C19.7984 17.9269 21.9672 21.0571 24.5406 23.7369C26.9188 26.2145 29.9906 28.6214 32.171 29.1862L30.9549 30.4027ZM33.2366 28.1216C32.2108 28.343 29.0369 26.7233 25.3887 22.923C21.147 18.5058 19.987 15.1363 20.5546 14.5687L20.5532 14.5673L21.7836 13.3373C21.92 13.9734 22.2145 14.7177 22.6667 15.5693C23.6068 17.3359 25.1421 19.369 26.9895 21.2926C29.3653 23.767 32.4371 26.1742 34.6181 26.7409L33.2366 28.1216ZM35.6813 25.6776C34.6513 25.8916 31.4771 24.2695 27.8373 20.4787C26.0631 18.6306 24.5952 16.6909 23.7044 15.0171C22.7468 13.218 22.7958 12.3685 22.9797 12.1418L24.2322 10.8898C24.3675 11.5221 24.6585 12.2607 25.1055 13.1065C26.0456 14.8803 27.5845 16.9211 29.4391 18.8532C31.809 21.3209 34.8794 23.7286 37.0607 24.2994L35.6813 25.6776ZM38.1212 23.2392C37.6707 23.3235 36.7071 23.0842 35.2176 22.1637C33.6777 21.212 31.9261 19.7473 30.2865 18.0398C26.2606 13.8464 25.0026 10.5619 25.3803 9.77474L25.3796 9.77439C25.4713 9.74676 25.5639 9.72507 25.658 9.70934C27.0104 9.48341 27.6911 10.4525 28.9816 12.4898C29.7462 13.6965 30.6129 15.0643 31.9083 16.4132C34.2586 18.8604 37.3248 21.2694 39.5076 21.8532L38.1212 23.2392ZM46.4394 21.4625H46.4391C46.3639 21.5359 46.2744 21.5926 46.1754 21.6282C45.3867 21.9266 43.7409 21.3999 41.7728 20.2181C39.4467 18.8222 36.7865 16.6178 34.2823 14.0105C33.7577 13.4642 33.2436 12.9039 32.754 12.3443V12.344C32.6526 12.223 32.5067 12.1478 32.349 12.1355C32.1916 12.1233 32.0356 12.1751 31.9167 12.2793C31.7978 12.3832 31.7258 12.5308 31.717 12.6885C31.7083 12.8462 31.7632 13.0012 31.8698 13.1176C32.3714 13.6905 32.8981 14.2645 33.4346 14.8237C35.7761 17.2621 38.2594 19.361 40.5051 20.8102C40.0189 20.8512 39.0641 20.5815 37.6428 19.6963C36.114 18.7443 34.3782 17.289 32.7554 15.5991C31.5418 14.3358 30.7088 13.0208 29.9743 11.8607C28.9566 10.2546 28.0517 8.82696 26.5731 8.54932L27.6835 7.43927L27.6842 7.43962C28.3746 8.59864 29.1336 9.71576 29.9572 10.7842C30.1544 11.0419 30.5231 11.0913 30.7808 10.8943C31.0389 10.6971 31.0879 10.3285 30.891 10.0707C29.9408 8.84551 29.0842 7.55076 28.3284 6.19727C27.3698 4.44544 26.507 2.14306 27.2296 1.4215C27.3968 1.25432 27.6703 1.17004 28.0378 1.17528C29.1249 1.18612 30.819 1.92128 32.8101 3.24469C34.9281 4.6528 37.2019 6.59945 39.3863 8.87452C45.3474 15.0821 47.5119 20.3895 46.4392 21.4622L46.4394 21.4625Z" fill="#F9B703"/>
</g>
<defs>
<clipPath id="clip0_190_3399">
<rect width="48" height="48" fill="white"/>
</clipPath>
</defs>
</svg>
