<svg width="48" height="48" viewBox="0 0 48 48" fill="none" xmlns="http://www.w3.org/2000/svg">
<g clip-path="url(#clip0_190_3375)">
<path d="M29.8681 33.1797L31.5876 30.7244C31.813 30.409 31.7301 29.9661 31.4151 29.7482C31.0997 29.5228 30.6568 29.6057 30.4389 29.9207L28.7194 32.376C28.494 32.6914 28.5769 33.1343 28.8919 33.3522C29.0119 33.4347 29.1548 33.4797 29.2973 33.4797C29.5152 33.4726 29.7331 33.3676 29.8681 33.1797H29.8681Z" fill="#F9B703"/>
<path d="M34.3581 29.0357C34.0427 28.8103 33.5998 28.8932 33.3819 29.2082L29.275 35.0571C29.0497 35.3725 29.1325 35.8154 29.4476 36.0333C29.5676 36.1158 29.7105 36.1608 29.853 36.1608C30.0708 36.1608 30.2884 36.0558 30.4312 35.8604L34.531 30.0115C34.7485 29.6965 34.6735 29.2532 34.3581 29.0357H34.3581Z" fill="#F9B703"/>
<path d="M40.1542 26.6921H25.6483C24.845 26.6921 24.1992 27.3454 24.1992 28.1412V39.6433C24.1992 40.4466 24.8525 41.0924 25.6483 41.0924H40.1542C40.9575 41.0924 41.6033 40.4391 41.6033 39.6433V28.1485C41.6033 27.3452 40.9575 26.6919 40.1542 26.6919V26.6921ZM40.1992 39.6517C40.1992 39.6817 40.1767 39.6967 40.1542 39.6967H25.6483C25.6183 39.6967 25.6033 39.6742 25.6033 39.6517V28.1487C25.6033 28.1187 25.6258 28.0962 25.6483 28.0962H40.1542C40.1842 28.0962 40.1992 28.1187 40.1992 28.1487V39.6517Z" fill="#F9B703"/>
<path d="M47.9928 15.2202V15.1977C47.9853 15.1452 47.9778 15.0927 47.9628 15.0402V15.0326L43.4051 1.62315C43.0972 0.706936 42.2413 0.0915527 41.2727 0.0915527H6.71253C5.74383 0.0915527 4.88805 0.707338 4.58018 1.62315L0.0300033 15.04V15.0475C0.0150019 15.1 0 15.1525 0 15.205V15.2275V15.2725V19.6423C0 20.7909 0.540422 21.8196 1.38155 22.4804V47.2795C1.38155 47.6699 1.69694 47.9778 2.07984 47.9778H45.9202C46.3106 47.9778 46.6185 47.6624 46.6185 47.2795V22.4731C47.4593 21.8123 48 20.7836 48 19.6349V15.2652C48 15.2502 47.9925 15.2352 47.9925 15.2202H47.9928ZM5.90898 2.07311C6.02899 1.72771 6.35189 1.49483 6.71229 1.49483H37.3534H37.3609H41.2728C41.6332 1.49483 41.9561 1.72771 42.0761 2.07311L46.3184 14.5591H1.67522L5.90898 2.07311ZM40.77 19.687C40.74 20.8807 39.7638 21.8418 38.5626 21.8418C37.3464 21.8418 36.3552 20.8506 36.3552 19.6344V15.9704H40.7774V19.6344C40.7699 19.6494 40.7699 19.6719 40.7699 19.6869L40.77 19.687ZM34.9286 15.9629V19.6269C34.9286 20.8431 33.9374 21.8343 32.7137 21.8343C31.5125 21.8343 30.5364 20.8731 30.5063 19.6795V19.627V15.963L34.9286 15.9629ZM29.1097 19.687C29.0797 20.8807 28.1035 21.8418 26.9023 21.8418C25.7011 21.8418 24.725 20.8806 24.6949 19.687V19.6345V15.9705H29.1096V19.6345C29.1021 19.6495 29.1096 19.672 29.1096 19.687H29.1097ZM23.2834 19.687C23.2533 20.8807 22.2772 21.8418 21.0759 21.8418C19.8747 21.8418 18.8986 20.8806 18.8685 19.687V19.6345V15.9705H23.2833V19.6345V19.687H23.2834ZM17.4645 19.687C17.4345 20.8807 16.4583 21.8418 15.257 21.8418C14.0558 21.8418 13.0797 20.8806 13.0496 19.687V19.6345V15.9705H17.4644V19.6345C17.4569 19.6495 17.4644 19.672 17.4644 19.687H17.4645ZM11.6381 19.687C11.6081 20.8807 10.6319 21.8418 9.43065 21.8418C8.22942 21.8418 7.25331 20.8806 7.22323 19.687V19.6345V15.9705H11.638V19.6345V19.687H11.6381ZM1.39693 19.6345V15.9705H5.81919V19.6345V19.687C5.78918 20.8807 4.81299 21.8418 3.61176 21.8418C2.38804 21.8418 1.39684 20.8506 1.39684 19.6344L1.39693 19.6345ZM18.8837 46.5741H8.01893V28.1492C8.01893 28.1192 8.04143 28.0967 8.06393 28.0967H18.8382C18.8682 28.0967 18.8832 28.1192 18.8832 28.1492L18.8837 46.5741ZM45.2071 46.5741H20.2873V28.1492C20.2873 27.3459 19.634 26.7001 18.8381 26.7001H8.06392C7.26061 26.7001 6.61479 27.3534 6.61479 28.1492V46.5741H2.7783V23.1484C3.04118 23.2085 3.31872 23.246 3.6041 23.246C4.79783 23.246 5.85651 22.6677 6.51725 21.7668C7.17804 22.6602 8.23675 23.246 9.4304 23.246C10.6241 23.246 11.6828 22.6677 12.3435 21.7668C13.0043 22.6602 14.0631 23.246 15.2567 23.246C16.4504 23.246 17.5091 22.6677 18.1698 21.7668C18.8306 22.6602 19.8893 23.246 21.083 23.246C22.2767 23.246 23.3354 22.6677 23.9961 21.7668C24.6569 22.6602 25.7156 23.246 26.9093 23.246C28.103 23.246 29.1617 22.6677 29.8224 21.7668C30.4832 22.6602 31.5419 23.246 32.7356 23.246C33.9368 23.246 34.9955 22.6602 35.6562 21.7593C36.317 22.6602 37.3757 23.246 38.5769 23.246C39.7706 23.246 40.8293 22.6677 41.49 21.7668C42.1508 22.6602 43.2095 23.246 44.4032 23.246C44.6886 23.246 44.9664 23.2085 45.229 23.1484V46.5741H45.2071ZM46.5961 19.6345C46.5961 20.8507 45.6049 21.8419 44.3812 21.8419C43.18 21.8419 42.2039 20.8807 42.1738 19.687V19.6345V15.9706H46.596L46.5961 19.6345Z" fill="#F9B703"/>
<path d="M17.1716 34.4415C17.562 34.4415 17.8699 34.1261 17.8699 33.7432C17.8699 33.3528 17.5545 33.0449 17.1716 33.0449C16.0454 33.0449 15.1367 33.9611 15.1367 35.0798V39.6071C15.1367 40.7333 16.0529 41.642 17.1716 41.642C17.562 41.642 17.8699 41.3266 17.8699 40.9437C17.8699 40.5533 17.5545 40.2454 17.1716 40.2454C16.8262 40.2454 16.5408 39.96 16.5408 39.6146V35.0873C16.5412 34.7266 16.8262 34.4415 17.1716 34.4415V34.4415Z" fill="#F9B703"/>
</g>
<defs>
<clipPath id="clip0_190_3375">
<rect width="48" height="48" fill="white"/>
</clipPath>
</defs>
</svg>
